<svg width="222" height="75" viewBox="0 0 222 75" fill="none" xmlns="http://www.w3.org/2000/svg">
<path d="M179.545 73.2719C175.828 68.437 176.672 61.55 181.438 57.8201L181.627 57.6727C181.627 57.6727 170.267 57.6971 170.98 52.9217C171.693 48.1464 185.231 57.3789 185.231 57.3789L185.231 56.4227L199.807 50.2892C199.807 51.6681 201.189 52.6607 202.548 52.4251C206.725 51.7008 212.209 52.0414 212.448 55.3783C212.764 59.7952 210.796 64.0076 200.245 60.4053C181.367 53.9602 186.665 77.6434 179.545 73.2719Z" fill="#FF5F15"/>
<path d="M199.807 50.2892L193.358 50.1865C190.668 50.1436 188.51 48.4618 187.705 45.8951C187.527 45.3285 187.339 44.7947 187.142 44.356C186.811 43.6183 186.354 42.8763 186.198 42.0829C186.042 41.2895 185.613 40.547 185.077 39.9415C184.891 39.7319 184.686 39.4955 184.466 39.2413C181.835 36.193 180.085 37.3317 180.801 41.2949C181.272 43.8986 179.671 45.7428 177.11 45.0767C176.027 44.7949 174.886 44.4836 173.84 44.2145C171.163 43.5259 170.369 45.3681 172.715 46.8285C174.052 47.6603 175.385 48.2627 175.455 48.3433C177.452 50.3407 179.589 52.1937 181.849 53.888L185.231 56.4227L199.807 50.2892Z" fill="#FF5F15"/>
<path fill-rule="evenodd" clip-rule="evenodd" d="M214.876 22.2443C211.04 20.9662 206.734 22.8698 205.195 26.5181C204.676 27.7641 204.455 28.9838 204.379 31.039C204.374 31.204 204.37 31.3576 204.366 31.5015C204.344 32.2984 204.33 32.7972 204.225 33.2774C204.05 34.0812 203.62 34.8326 202.471 36.8419C202.338 37.0747 202.195 37.3244 202.041 37.5931L199.983 41.2024L196.95 39.5669C194.893 38.4579 193.845 37.937 193.682 37.9259C193.395 37.9138 192.058 38.2574 192.005 38.3497C191.986 38.3833 197.221 41.2499 203.633 44.7073C210.054 48.1693 215.318 50.9641 215.337 50.9305C215.39 50.8382 214.982 49.5534 214.819 49.3231C214.723 49.1945 213.714 48.6064 211.657 47.4975L208.624 45.862L210.673 42.2694C212.344 39.34 212.796 38.607 213.092 38.3271C213.29 38.1378 214.185 37.5006 215.086 36.911C216.958 35.6702 217.859 34.8829 218.676 33.787C220.917 30.7698 220.52 26.572 217.747 23.9461C217.242 23.4651 215.569 22.4754 214.876 22.2443ZM212.594 24.7443C215.109 24.7443 217.133 26.7609 217.133 29.225C217.133 31.6931 215.057 33.7443 212.537 33.7443C209.964 33.7443 207.876 31.7166 207.876 29.1957C207.876 26.7459 209.92 24.7443 212.421 24.7443L212.594 24.7443Z" fill="#222326"/>
<path d="M212.917 29.7787C212.888 29.8274 212.848 29.865 212.797 29.8913C212.749 29.9187 212.691 29.9339 212.622 29.9369C212.552 29.9387 212.47 29.9262 212.377 29.8994C212.288 29.8718 212.189 29.8275 212.083 29.7665C211.994 29.7157 211.912 29.6572 211.837 29.5911C211.765 29.5261 211.708 29.4554 211.666 29.3792C211.623 29.3048 211.599 29.2256 211.594 29.1414C211.59 29.0552 211.611 28.9675 211.657 28.8783L210.871 28.4293C210.793 28.5581 210.747 28.7049 210.732 28.8698C210.721 29.0339 210.748 29.2013 210.812 29.3719C210.876 29.5445 210.981 29.7146 211.127 29.882C211.275 30.0506 211.47 30.2038 211.711 30.3416C211.931 30.467 212.144 30.5571 212.35 30.6119C212.558 30.6648 212.751 30.6845 212.929 30.6709C213.106 30.6562 213.263 30.6095 213.401 30.5309C213.542 30.4514 213.655 30.3414 213.74 30.201C213.832 30.0488 213.876 29.8983 213.873 29.7496C213.873 29.6 213.836 29.4517 213.762 29.3048C213.688 29.1598 213.582 29.0155 213.445 28.8718C213.308 28.7282 213.152 28.5854 212.977 28.4435C212.855 28.3472 212.757 28.2615 212.686 28.1864C212.615 28.1094 212.565 28.0402 212.536 27.9788C212.503 27.9182 212.489 27.8628 212.492 27.8125C212.497 27.7602 212.514 27.7107 212.542 27.6639C212.57 27.617 212.608 27.5793 212.654 27.5508C212.704 27.5214 212.76 27.5036 212.822 27.4972C212.891 27.4892 212.969 27.4969 213.056 27.5203C213.143 27.5437 213.237 27.5842 213.338 27.6418C213.456 27.7096 213.548 27.7818 213.614 27.8585C213.681 27.9364 213.725 28.0138 213.745 28.0908C213.758 28.1482 213.76 28.2054 213.749 28.2624C213.74 28.3174 213.719 28.3712 213.688 28.4239L214.513 28.8949C214.601 28.7486 214.65 28.5944 214.66 28.4322C214.67 28.2701 214.642 28.1082 214.575 27.9465C214.504 27.7856 214.395 27.6289 214.248 27.4766C214.101 27.3222 213.916 27.1813 213.693 27.0536C213.479 26.9316 213.271 26.8484 213.069 26.804C212.867 26.7595 212.68 26.7483 212.507 26.7702C212.334 26.7922 212.18 26.8446 212.045 26.9275C211.91 27.0104 211.803 27.1171 211.724 27.2479C211.642 27.3825 211.601 27.519 211.6 27.6574C211.601 27.7969 211.633 27.9373 211.697 28.0786C211.76 28.2219 211.851 28.3658 211.971 28.5105C212.094 28.6543 212.239 28.7985 212.404 28.9428C212.536 29.0548 212.642 29.1522 212.723 29.2348C212.803 29.3175 212.864 29.3914 212.904 29.4565C212.942 29.5224 212.96 29.5801 212.959 29.6296C212.961 29.6802 212.947 29.7299 212.917 29.7787Z" fill="#222326"/>
<path d="M185.936 38.0782C185.614 40.9008 185.419 43.1444 185.464 43.3225C185.61 43.9388 184.859 43.512 200.483 51.9365C214.828 59.6714 215.122 59.8298 215.485 59.8064C215.689 59.8063 215.961 59.7447 216.093 59.6728C216.224 59.601 217.238 58.8528 218.354 58.0058C219.47 57.1587 220.416 56.4507 220.466 56.4227C220.503 56.3984 212.757 52.189 203.251 47.0635L185.968 37.7443L185.936 38.0782Z" fill="#222326"/>
<path d="M22.8124 50H28.5311V49.6016C28.2186 48.9453 27.9764 48.1641 27.8046 47.2578C27.6483 46.3359 27.5702 45.3047 27.5702 44.1641V32.8906C27.5702 31.4531 27.3046 30.1875 26.7733 29.0938C26.2421 27.9844 25.5077 27.0703 24.5702 26.3516C23.6327 25.6328 22.5155 25.0938 21.2186 24.7344C19.9374 24.3594 18.5546 24.1719 17.0702 24.1719C15.4139 24.1719 13.9374 24.3906 12.6405 24.8281C11.3593 25.25 10.2811 25.8281 9.40614 26.5625C8.49989 27.2812 7.81239 28.1094 7.34364 29.0469C6.87489 29.9844 6.6327 30.9609 6.61707 31.9766H12.2421C12.2421 31.4922 12.328 31.0391 12.4999 30.6172C12.6874 30.1797 12.9686 29.8125 13.3436 29.5156C13.7186 29.1875 14.1874 28.9297 14.7499 28.7422C15.328 28.5547 15.9999 28.4609 16.7655 28.4609C17.6093 28.4609 18.3514 28.5703 18.9921 28.7891C19.6483 28.9922 20.203 29.2891 20.6561 29.6797C21.078 30.0703 21.3983 30.5312 21.6171 31.0625C21.8514 31.5938 21.9686 32.1875 21.9686 32.8438V34.5547H17.8905C16.0624 34.5547 14.4218 34.7266 12.9686 35.0703C11.5311 35.4141 10.3202 35.9141 9.33582 36.5703C8.27332 37.2734 7.46082 38.1641 6.89832 39.2422C6.35145 40.3047 6.07801 41.5312 6.07801 42.9219C6.07801 44 6.28895 45.0078 6.71082 45.9453C7.14832 46.8672 7.7577 47.6562 8.53895 48.3125C9.30457 48.9844 10.2264 49.5156 11.3046 49.9062C12.3983 50.2812 13.6014 50.4688 14.9139 50.4688C15.7264 50.4688 16.4843 50.3906 17.1874 50.2344C17.8905 50.0781 18.5468 49.8594 19.1561 49.5781C19.7655 49.3125 20.3124 49 20.7968 48.6406C21.2968 48.2656 21.7421 47.875 22.1327 47.4688C22.2108 47.9531 22.2968 48.4219 22.3905 48.875C22.4999 49.3125 22.6405 49.6875 22.8124 50ZM15.9921 45.9688C15.2733 45.9688 14.6483 45.8828 14.1171 45.7109C13.5858 45.5234 13.1405 45.2734 12.7811 44.9609C12.4218 44.6484 12.1483 44.2734 11.9608 43.8359C11.7733 43.3828 11.6796 42.8984 11.6796 42.3828C11.6796 41.7578 11.7889 41.1953 12.0077 40.6953C12.2421 40.1953 12.5936 39.7656 13.0624 39.4062C13.5936 38.9844 14.3046 38.6641 15.1952 38.4453C16.0858 38.2109 17.1405 38.0938 18.3593 38.0938H21.9686V42.7812C21.7655 43.1875 21.4764 43.5781 21.1014 43.9531C20.7264 44.3281 20.2811 44.6641 19.7655 44.9609C19.2499 45.2578 18.6718 45.5 18.0311 45.6875C17.4061 45.875 16.7264 45.9688 15.9921 45.9688ZM49.3764 24.1719C47.6264 24.1719 46.0249 24.5781 44.5718 25.3906C43.1343 26.2031 41.8999 27.3203 40.8686 28.7422L40.8452 28.1562L40.6108 24.6406H35.3608V50H40.9624V34.3438C41.2593 33.5938 41.6264 32.9297 42.0639 32.3516C42.5014 31.7734 43.0327 31.2969 43.6577 30.9219C44.2358 30.5312 44.8999 30.2422 45.6499 30.0547C46.3999 29.8672 47.2436 29.7734 48.1811 29.7734C49.0093 29.7734 49.8374 29.8203 50.6655 29.9141C51.5093 30.0078 52.3608 30.1484 53.2202 30.3359L54.0171 24.8047C53.5327 24.6328 52.8608 24.4844 52.0014 24.3594C51.1577 24.2344 50.2827 24.1719 49.3764 24.1719ZM59.1827 50H63.9405L67.1514 35.6094L67.7139 32.4688L68.2999 35.6094L71.5811 50H76.3389L81.2374 24.6406H76.1514L73.878 40.1094L73.4327 43.2031L72.8936 40.1328L69.5889 24.6406H65.9093L62.6046 40.1797L62.0889 43.1094L61.6905 40.1797L59.3468 24.6406H54.2843L59.1827 50ZM94.1374 50.4688C96.6061 50.4688 98.7077 49.9844 100.442 49.0156C102.192 48.0469 103.489 46.9531 104.333 45.7344L101.333 42.8281C100.551 43.8281 99.5593 44.6016 98.3561 45.1484C97.153 45.6797 95.8561 45.9453 94.4655 45.9453C93.4499 45.9453 92.5124 45.7734 91.653 45.4297C90.8093 45.0859 90.0749 44.6016 89.4499 43.9766C88.8249 43.3828 88.3327 42.7109 87.9733 41.9609C87.6139 41.2109 87.3483 40.2812 87.1764 39.1719V39.0547H104.755V36.6406C104.755 34.8281 104.512 33.1562 104.028 31.625C103.544 30.0938 102.825 28.7734 101.872 27.6641C100.919 26.5703 99.7389 25.7188 98.3327 25.1094C96.9264 24.4844 95.3093 24.1719 93.4811 24.1719C91.8405 24.1719 90.2936 24.4844 88.8405 25.1094C87.403 25.7188 86.1374 26.5938 85.0436 27.7344C83.9499 28.875 83.0905 30.25 82.4655 31.8594C81.8405 33.4688 81.528 35.2656 81.528 37.25V38.2109C81.528 39.9453 81.8249 41.5625 82.4186 43.0625C83.028 44.5469 83.8874 45.8359 84.9968 46.9297C86.1061 48.0391 87.4343 48.9062 88.9811 49.5312C90.5436 50.1562 92.2624 50.4688 94.1374 50.4688ZM93.4577 28.7188C94.3952 28.7188 95.2155 28.8828 95.9186 29.2109C96.6374 29.5234 97.2311 29.9453 97.6999 30.4766C98.1843 31.0234 98.5593 31.6641 98.8249 32.3984C99.0905 33.1172 99.2233 33.8438 99.2233 34.5781V34.9531H87.2936C87.4655 33.9844 87.7311 33.1172 88.0905 32.3516C88.4499 31.5859 88.8952 30.9297 89.4264 30.3828C89.9577 29.8516 90.5593 29.4453 91.2311 29.1641C91.9186 28.8672 92.6608 28.7188 93.4577 28.7188ZM123.725 50H129.444V49.6016C129.131 48.9453 128.889 48.1641 128.717 47.2578C128.561 46.3359 128.483 45.3047 128.483 44.1641V32.8906C128.483 31.4531 128.217 30.1875 127.686 29.0938C127.155 27.9844 126.42 27.0703 125.483 26.3516C124.545 25.6328 123.428 25.0938 122.131 24.7344C120.85 24.3594 119.467 24.1719 117.983 24.1719C116.326 24.1719 114.85 24.3906 113.553 24.8281C112.272 25.25 111.194 25.8281 110.319 26.5625C109.412 27.2812 108.725 28.1094 108.256 29.0469C107.787 29.9844 107.545 30.9609 107.53 31.9766H113.155C113.155 31.4922 113.241 31.0391 113.412 30.6172C113.6 30.1797 113.881 29.8125 114.256 29.5156C114.631 29.1875 115.1 28.9297 115.662 28.7422C116.241 28.5547 116.912 28.4609 117.678 28.4609C118.522 28.4609 119.264 28.5703 119.905 28.7891C120.561 28.9922 121.116 29.2891 121.569 29.6797C121.991 30.0703 122.311 30.5312 122.53 31.0625C122.764 31.5938 122.881 32.1875 122.881 32.8438V34.5547H118.803C116.975 34.5547 115.334 34.7266 113.881 35.0703C112.444 35.4141 111.233 35.9141 110.248 36.5703C109.186 37.2734 108.373 38.1641 107.811 39.2422C107.264 40.3047 106.991 41.5312 106.991 42.9219C106.991 44 107.201 45.0078 107.623 45.9453C108.061 46.8672 108.67 47.6562 109.451 48.3125C110.217 48.9844 111.139 49.5156 112.217 49.9062C113.311 50.2812 114.514 50.4688 115.826 50.4688C116.639 50.4688 117.397 50.3906 118.1 50.2344C118.803 50.0781 119.459 49.8594 120.069 49.5781C120.678 49.3125 121.225 49 121.709 48.6406C122.209 48.2656 122.655 47.875 123.045 47.4688C123.123 47.9531 123.209 48.4219 123.303 48.875C123.412 49.3125 123.553 49.6875 123.725 50ZM116.905 45.9688C116.186 45.9688 115.561 45.8828 115.03 45.7109C114.498 45.5234 114.053 45.2734 113.694 44.9609C113.334 44.6484 113.061 44.2734 112.873 43.8359C112.686 43.3828 112.592 42.8984 112.592 42.3828C112.592 41.7578 112.701 41.1953 112.92 40.6953C113.155 40.1953 113.506 39.7656 113.975 39.4062C114.506 38.9844 115.217 38.6641 116.108 38.4453C116.998 38.2109 118.053 38.0938 119.272 38.0938H122.881V42.7812C122.678 43.1875 122.389 43.5781 122.014 43.9531C121.639 44.3281 121.194 44.6641 120.678 44.9609C120.162 45.2578 119.584 45.5 118.944 45.6875C118.319 45.875 117.639 45.9688 116.905 45.9688ZM141.055 50H146L155.937 24.6406H150.125L143.914 43.0391L143.539 44.7266L143.164 43.0391L136.883 24.6406H131.07L141.055 50ZM169.822 50.4688C172.29 50.4688 174.392 49.9844 176.126 49.0156C177.876 48.0469 179.173 46.9531 180.017 45.7344L177.017 42.8281C176.236 43.8281 175.244 44.6016 174.04 45.1484C172.837 45.6797 171.54 45.9453 170.15 45.9453C169.134 45.9453 168.197 45.7734 167.337 45.4297C166.494 45.0859 165.759 44.6016 165.134 43.9766C164.509 43.3828 164.017 42.7109 163.658 41.9609C163.298 41.2109 163.033 40.2812 162.861 39.1719V39.0547H180.439V36.6406C180.439 34.8281 180.197 33.1562 179.712 31.625C179.228 30.0938 178.509 28.7734 177.556 27.6641C176.603 26.5703 175.423 25.7188 174.017 25.1094C172.611 24.4844 170.994 24.1719 169.165 24.1719C167.525 24.1719 165.978 24.4844 164.525 25.1094C163.087 25.7188 161.822 26.5938 160.728 27.7344C159.634 28.875 158.775 30.25 158.15 31.8594C157.525 33.4688 157.212 35.2656 157.212 37.25V38.2109C157.212 39.9453 157.509 41.5625 158.103 43.0625C158.712 44.5469 159.572 45.8359 160.681 46.9297C161.79 48.0391 163.119 48.9062 164.665 49.5312C166.228 50.1562 167.947 50.4688 169.822 50.4688ZM169.142 28.7188C170.08 28.7188 170.9 28.8828 171.603 29.2109C172.322 29.5234 172.915 29.9453 173.384 30.4766C173.869 31.0234 174.244 31.6641 174.509 32.3984C174.775 33.1172 174.908 33.8438 174.908 34.5781V34.9531H162.978C163.15 33.9844 163.415 33.1172 163.775 32.3516C164.134 31.5859 164.58 30.9297 165.111 30.3828C165.642 29.8516 166.244 29.4453 166.915 29.1641C167.603 28.8672 168.345 28.7188 169.142 28.7188Z" fill="#222326"/>
<path d="M14.2953 62.854C14.2953 62.981 14.266 63.0981 14.2074 63.2056C14.1537 63.3081 14.0706 63.4033 13.9583 63.4912C13.8216 63.5986 13.6385 63.6841 13.409 63.7476C13.1844 63.811 12.9207 63.8428 12.618 63.8428C12.3934 63.8428 12.1712 63.8208 11.9515 63.7769C11.7318 63.728 11.5365 63.6499 11.3656 63.5425C11.1898 63.4399 11.0433 63.3057 10.9261 63.1396C10.8138 62.9688 10.7503 62.7612 10.7357 62.5171H9.03647C9.03647 62.8442 9.11459 63.1665 9.27084 63.4839C9.42709 63.8013 9.65659 64.082 9.95932 64.3262C10.2572 64.5752 10.6258 64.7754 11.0653 64.9268C11.5096 65.0781 12.0174 65.1538 12.5887 65.1538C13.1014 65.1538 13.5677 65.0952 13.9876 64.978C14.4076 64.8608 14.7689 64.6973 15.0716 64.4873C15.3695 64.2773 15.599 64.0259 15.7601 63.7329C15.9261 63.4399 16.0091 63.1177 16.0091 62.7661C16.0091 62.4048 15.931 62.0923 15.7747 61.8286C15.6185 61.5649 15.3988 61.3354 15.1156 61.1401C14.8324 60.9546 14.4906 60.7983 14.0902 60.6714C13.6898 60.5444 13.2479 60.437 12.7645 60.3491C12.4178 60.2905 12.1297 60.2246 11.9002 60.1514C11.6756 60.0781 11.4998 59.9976 11.3729 59.9097C11.2362 59.8267 11.141 59.7314 11.0872 59.624C11.0335 59.5117 11.0067 59.3872 11.0067 59.2505C11.0067 59.1187 11.0384 58.9941 11.1019 58.877C11.1654 58.7549 11.2606 58.6499 11.3875 58.562C11.5145 58.4644 11.6756 58.3887 11.8709 58.335C12.0711 58.2764 12.3031 58.2471 12.5667 58.2471C12.8548 58.2471 13.1063 58.2861 13.3211 58.3643C13.536 58.4375 13.7118 58.5376 13.8485 58.6646C13.9657 58.772 14.0536 58.894 14.1122 59.0308C14.1756 59.1626 14.2074 59.3018 14.2074 59.4482H15.9579C15.9579 59.0918 15.8797 58.7598 15.7235 58.4521C15.5672 58.1445 15.3451 57.8784 15.057 57.6538C14.764 57.4292 14.4076 57.2534 13.9876 57.1265C13.5677 56.9946 13.0941 56.9287 12.5667 56.9287C12.0736 56.9287 11.6244 56.9922 11.2191 57.1191C10.8187 57.2461 10.4769 57.4194 10.1937 57.6392C9.90561 57.8589 9.68344 58.1152 9.52719 58.4082C9.37582 58.6963 9.30014 59.0015 9.30014 59.3237C9.30014 59.6606 9.37582 59.9561 9.52719 60.21C9.67856 60.4639 9.88852 60.6836 10.1571 60.8691C10.4305 61.0645 10.7552 61.2305 11.1312 61.3672C11.5121 61.5039 11.932 61.6187 12.391 61.7114C12.7572 61.7798 13.0623 61.853 13.3065 61.9312C13.5506 62.0093 13.7484 62.0923 13.8997 62.1802C14.0414 62.2778 14.1414 62.3804 14.2 62.4878C14.2635 62.5952 14.2953 62.7173 14.2953 62.854ZM21.29 65H22.7768L23.7802 60.5029L23.956 59.5215L24.1391 60.5029L25.1645 65H26.6513L28.1821 57.0752H26.5927L25.8823 61.9092L25.7431 62.876L25.5747 61.9165L24.542 57.0752H23.3921L22.3593 61.9312L22.1982 62.8467L22.0737 61.9312L21.3413 57.0752H19.7592L21.29 65ZM37.2056 65H38.9928V64.8755C38.8951 64.6704 38.8194 64.4263 38.7657 64.1431C38.7169 63.855 38.6925 63.5327 38.6925 63.1763V59.6533C38.6925 59.2041 38.6095 58.8086 38.4434 58.4668C38.2774 58.1201 38.0479 57.8345 37.755 57.6099C37.462 57.3853 37.1129 57.2168 36.7076 57.1045C36.3072 56.9873 35.8751 56.9287 35.4112 56.9287C34.8936 56.9287 34.4322 56.9971 34.0269 57.1338C33.6265 57.2656 33.2896 57.4463 33.0162 57.6758C32.733 57.9004 32.5181 58.1592 32.3717 58.4521C32.2252 58.7451 32.1495 59.0503 32.1446 59.3677H33.9024C33.9024 59.2163 33.9293 59.0747 33.983 58.9429C34.0416 58.8062 34.1295 58.6914 34.2467 58.5986C34.3639 58.4961 34.5103 58.4155 34.6861 58.3569C34.8668 58.2983 35.0767 58.269 35.316 58.269C35.5797 58.269 35.8116 58.3032 36.0118 58.3716C36.2169 58.4351 36.3902 58.5278 36.5318 58.6499C36.6637 58.772 36.7638 58.916 36.8321 59.082C36.9054 59.248 36.942 59.4336 36.942 59.6387V60.1733H35.6676C35.0963 60.1733 34.5836 60.2271 34.1295 60.3345C33.6803 60.4419 33.3018 60.5981 32.9942 60.8032C32.6622 61.0229 32.4083 61.3013 32.2325 61.6382C32.0616 61.9702 31.9762 62.3535 31.9762 62.7881C31.9762 63.125 32.0421 63.4399 32.1739 63.7329C32.3106 64.021 32.5011 64.2676 32.7452 64.4727C32.9845 64.6826 33.2725 64.8486 33.6095 64.9707C33.9513 65.0879 34.3272 65.1465 34.7374 65.1465C34.9913 65.1465 35.2281 65.1221 35.4478 65.0732C35.6676 65.0244 35.8726 64.9561 36.0631 64.8682C36.2535 64.7852 36.4244 64.6875 36.5758 64.5752C36.732 64.458 36.8712 64.3359 36.9932 64.209C37.0177 64.3604 37.0445 64.5068 37.0738 64.6484C37.108 64.7852 37.1519 64.9023 37.2056 65ZM35.0743 63.7402C34.8497 63.7402 34.6544 63.7134 34.4884 63.6597C34.3223 63.6011 34.1832 63.5229 34.0709 63.4253C33.9586 63.3276 33.8731 63.2104 33.8145 63.0737C33.7559 62.9321 33.7266 62.7808 33.7266 62.6196C33.7266 62.4243 33.7608 62.2485 33.8292 62.0923C33.9024 61.936 34.0123 61.8018 34.1588 61.6895C34.3248 61.5576 34.547 61.4575 34.8253 61.3892C35.1036 61.3159 35.4332 61.2793 35.814 61.2793H36.942V62.7441C36.8785 62.8711 36.7882 62.9932 36.671 63.1104C36.5538 63.2275 36.4146 63.3325 36.2535 63.4253C36.0924 63.5181 35.9117 63.5938 35.7115 63.6523C35.5162 63.7109 35.3038 63.7402 35.0743 63.7402ZM43.4314 60.979V61.1328C43.4314 61.7041 43.5046 62.2363 43.6511 62.7295C43.8024 63.2178 44.0148 63.6401 44.2883 63.9966C44.5666 64.3579 44.9011 64.6411 45.2917 64.8462C45.6823 65.0464 46.1218 65.1465 46.6101 65.1465C46.8786 65.1465 47.1276 65.1172 47.3571 65.0586C47.5866 65.0049 47.7966 64.9243 47.987 64.8169C48.114 64.7485 48.2312 64.668 48.3386 64.5752C48.4509 64.4824 48.5583 64.3823 48.6608 64.2749V64.8242C48.6608 65.1221 48.6169 65.3882 48.529 65.6226C48.446 65.8569 48.3264 66.0547 48.1701 66.2158C47.9992 66.3818 47.7917 66.5088 47.5476 66.5967C47.3083 66.6846 47.0324 66.7285 46.7199 66.7285C46.5393 66.7285 46.361 66.709 46.1853 66.6699C46.0095 66.6357 45.8361 66.5796 45.6652 66.5015C45.4943 66.4233 45.3259 66.3208 45.1599 66.1938C44.9987 66.0718 44.8474 65.9253 44.7058 65.7544L43.8781 66.8164C44.0539 67.0508 44.2639 67.251 44.508 67.417C44.7522 67.583 45.0085 67.7173 45.2771 67.8198C45.5456 67.9224 45.8142 67.998 46.0827 68.0469C46.3513 68.0957 46.5979 68.1201 46.8225 68.1201C47.3547 68.1201 47.8405 68.0444 48.28 67.8931C48.7243 67.7466 49.1052 67.5317 49.4226 67.2485C49.7351 66.9604 49.9768 66.6089 50.1477 66.1938C50.3234 65.7837 50.4113 65.3125 50.4113 64.7803V57.0752H48.822L48.7487 57.8735C48.6511 57.7563 48.5461 57.6489 48.4338 57.5513C48.3215 57.4487 48.2019 57.3608 48.0749 57.2876C47.8796 57.1704 47.6623 57.0825 47.423 57.0239C47.1838 56.9604 46.9177 56.9287 46.6247 56.9287C46.1315 56.9287 45.6872 57.0288 45.2917 57.229C44.9011 57.4243 44.5666 57.7002 44.2883 58.0566C44.01 58.4131 43.7976 58.8403 43.6511 59.3384C43.5046 59.8315 43.4314 60.3784 43.4314 60.979ZM45.1892 61.1328V60.979C45.1892 60.6226 45.2258 60.2881 45.299 59.9756C45.3723 59.6582 45.487 59.3799 45.6433 59.1406C45.7946 58.9014 45.9875 58.7134 46.2219 58.5767C46.4563 58.4399 46.737 58.3716 47.0642 58.3716C47.2497 58.3716 47.4206 58.3936 47.5769 58.4375C47.7331 58.4766 47.8747 58.5303 48.0017 58.5986C48.1433 58.6816 48.2678 58.7817 48.3752 58.8989C48.4875 59.0161 48.5827 59.1479 48.6608 59.2944V62.7661C48.5827 62.9077 48.4924 63.0371 48.3898 63.1543C48.2873 63.2715 48.1701 63.3716 48.0383 63.4546C47.9064 63.5327 47.7575 63.5938 47.5915 63.6377C47.4304 63.6816 47.2497 63.7036 47.0495 63.7036C46.7272 63.7036 46.4489 63.6377 46.2146 63.5059C45.9802 63.3691 45.7873 63.1812 45.6359 62.9419C45.4797 62.7124 45.3649 62.4414 45.2917 62.1289C45.2233 61.8164 45.1892 61.4844 45.1892 61.1328ZM71.8642 62.854C71.8642 62.981 71.8349 63.0981 71.7763 63.2056C71.7226 63.3081 71.6396 63.4033 71.5273 63.4912C71.3906 63.5986 71.2075 63.6841 70.978 63.7476C70.7534 63.811 70.4897 63.8428 70.187 63.8428C69.9623 63.8428 69.7402 63.8208 69.5205 63.7769C69.3007 63.728 69.1054 63.6499 68.9345 63.5425C68.7587 63.4399 68.6123 63.3057 68.4951 63.1396C68.3828 62.9688 68.3193 62.7612 68.3046 62.5171H66.6054C66.6054 62.8442 66.6835 63.1665 66.8398 63.4839C66.996 63.8013 67.2255 64.082 67.5283 64.3262C67.8261 64.5752 68.1948 64.7754 68.6342 64.9268C69.0786 65.0781 69.5864 65.1538 70.1577 65.1538C70.6704 65.1538 71.1367 65.0952 71.5566 64.978C71.9765 64.8608 72.3378 64.6973 72.6406 64.4873C72.9384 64.2773 73.1679 64.0259 73.329 63.7329C73.4951 63.4399 73.5781 63.1177 73.5781 62.7661C73.5781 62.4048 73.4999 62.0923 73.3437 61.8286C73.1874 61.5649 72.9677 61.3354 72.6845 61.1401C72.4013 60.9546 72.0595 60.7983 71.6591 60.6714C71.2587 60.5444 70.8168 60.437 70.3334 60.3491C69.9868 60.2905 69.6987 60.2246 69.4692 60.1514C69.2446 60.0781 69.0688 59.9976 68.9418 59.9097C68.8051 59.8267 68.7099 59.7314 68.6562 59.624C68.6025 59.5117 68.5756 59.3872 68.5756 59.2505C68.5756 59.1187 68.6074 58.9941 68.6708 58.877C68.7343 58.7549 68.8295 58.6499 68.9565 58.562C69.0834 58.4644 69.2446 58.3887 69.4399 58.335C69.6401 58.2764 69.872 58.2471 70.1357 58.2471C70.4238 58.2471 70.6752 58.2861 70.8901 58.3643C71.1049 58.4375 71.2807 58.5376 71.4174 58.6646C71.5346 58.772 71.6225 58.894 71.6811 59.0308C71.7446 59.1626 71.7763 59.3018 71.7763 59.4482H73.5268C73.5268 59.0918 73.4487 58.7598 73.2924 58.4521C73.1362 58.1445 72.914 57.8784 72.6259 57.6538C72.333 57.4292 71.9765 57.2534 71.5566 57.1265C71.1367 56.9946 70.663 56.9287 70.1357 56.9287C69.6425 56.9287 69.1933 56.9922 68.788 57.1191C68.3876 57.2461 68.0458 57.4194 67.7626 57.6392C67.4746 57.8589 67.2524 58.1152 67.0961 58.4082C66.9448 58.6963 66.8691 59.0015 66.8691 59.3237C66.8691 59.6606 66.9448 59.9561 67.0961 60.21C67.2475 60.4639 67.4575 60.6836 67.726 60.8691C67.9995 61.0645 68.3242 61.2305 68.7001 61.3672C69.081 61.5039 69.5009 61.6187 69.9599 61.7114C70.3261 61.7798 70.6313 61.853 70.8754 61.9312C71.1196 62.0093 71.3173 62.0923 71.4687 62.1802C71.6103 62.2778 71.7104 62.3804 71.769 62.4878C71.8325 62.5952 71.8642 62.7173 71.8642 62.854ZM81.7154 55.1416H79.9576V57.0752H78.0386V58.3862H79.9576V62.2827C79.9576 62.7905 80.0235 63.2251 80.1553 63.5864C80.2921 63.9478 80.48 64.2432 80.7193 64.4727C80.9586 64.707 81.2442 64.8804 81.5762 64.9927C81.9131 65.1001 82.2818 65.1538 82.6822 65.1538C82.9019 65.1538 83.1216 65.1416 83.3414 65.1172C83.566 65.0977 83.7808 65.0684 83.9859 65.0293C84.191 64.9902 84.3814 64.9438 84.5572 64.8901C84.7379 64.8315 84.8917 64.7632 85.0186 64.6851L84.8282 63.4766C84.7403 63.4961 84.6304 63.5205 84.4986 63.5498C84.3716 63.5742 84.2349 63.5962 84.0884 63.6157C83.9371 63.6401 83.7808 63.6597 83.6197 63.6743C83.4586 63.689 83.3023 63.6963 83.1509 63.6963C82.941 63.6963 82.7481 63.6719 82.5723 63.623C82.3965 63.5742 82.2452 63.4912 82.1182 63.374C81.9913 63.2617 81.8912 63.1079 81.8179 62.9126C81.7496 62.7124 81.7154 62.4658 81.7154 62.1729V58.3862H84.6964V57.0752H81.7154V55.1416ZM94.7746 65H96.5617V64.8755C96.4641 64.6704 96.3884 64.4263 96.3347 64.1431C96.2858 63.855 96.2614 63.5327 96.2614 63.1763V59.6533C96.2614 59.2041 96.1784 58.8086 96.0124 58.4668C95.8464 58.1201 95.6169 57.8345 95.3239 57.6099C95.0309 57.3853 94.6818 57.2168 94.2766 57.1045C93.8762 56.9873 93.444 56.9287 92.9802 56.9287C92.4626 56.9287 92.0012 56.9971 91.5959 57.1338C91.1955 57.2656 90.8586 57.4463 90.5851 57.6758C90.3019 57.9004 90.0871 58.1592 89.9406 58.4521C89.7941 58.7451 89.7184 59.0503 89.7136 59.3677H91.4714C91.4714 59.2163 91.4982 59.0747 91.5519 58.9429C91.6105 58.8062 91.6984 58.6914 91.8156 58.5986C91.9328 58.4961 92.0793 58.4155 92.2551 58.3569C92.4357 58.2983 92.6457 58.269 92.8849 58.269C93.1486 58.269 93.3806 58.3032 93.5807 58.3716C93.7858 58.4351 93.9592 58.5278 94.1008 58.6499C94.2326 58.772 94.3327 58.916 94.4011 59.082C94.4743 59.248 94.5109 59.4336 94.5109 59.6387V60.1733H93.2365C92.6652 60.1733 92.1525 60.2271 91.6984 60.3345C91.2492 60.4419 90.8708 60.5981 90.5632 60.8032C90.2311 61.0229 89.9772 61.3013 89.8015 61.6382C89.6306 61.9702 89.5451 62.3535 89.5451 62.7881C89.5451 63.125 89.611 63.4399 89.7429 63.7329C89.8796 64.021 90.07 64.2676 90.3141 64.4727C90.5534 64.6826 90.8415 64.8486 91.1784 64.9707C91.5202 65.0879 91.8962 65.1465 92.3063 65.1465C92.5602 65.1465 92.7971 65.1221 93.0168 65.0732C93.2365 65.0244 93.4416 64.9561 93.632 64.8682C93.8224 64.7852 93.9933 64.6875 94.1447 64.5752C94.301 64.458 94.4401 64.3359 94.5622 64.209C94.5866 64.3604 94.6135 64.5068 94.6428 64.6484C94.6769 64.7852 94.7209 64.9023 94.7746 65ZM92.6432 63.7402C92.4186 63.7402 92.2233 63.7134 92.0573 63.6597C91.8913 63.6011 91.7521 63.5229 91.6398 63.4253C91.5275 63.3276 91.4421 63.2104 91.3835 63.0737C91.3249 62.9321 91.2956 62.7808 91.2956 62.6196C91.2956 62.4243 91.3298 62.2485 91.3981 62.0923C91.4714 61.936 91.5812 61.8018 91.7277 61.6895C91.8937 61.5576 92.1159 61.4575 92.3942 61.3892C92.6725 61.3159 93.0021 61.2793 93.383 61.2793H94.5109V62.7441C94.4474 62.8711 94.3571 62.9932 94.2399 63.1104C94.1227 63.2275 93.9836 63.3325 93.8224 63.4253C93.6613 63.5181 93.4807 63.5938 93.2805 63.6523C93.0851 63.7109 92.8727 63.7402 92.6432 63.7402ZM102.223 57.0752H100.7V65H102.311V58.9136C102.341 58.8403 102.372 58.7744 102.407 58.7158C102.446 58.6572 102.49 58.606 102.538 58.562C102.602 58.4985 102.678 58.4521 102.765 58.4229C102.858 58.3887 102.963 58.3716 103.08 58.3716C103.188 58.3716 103.283 58.3862 103.366 58.4155C103.454 58.4448 103.53 58.4912 103.593 58.5547C103.657 58.6182 103.703 58.7061 103.732 58.8184C103.766 58.9258 103.784 59.0576 103.784 59.2139V65H105.366V59.1187C105.366 59.0698 105.366 59.0332 105.366 59.0088C105.366 58.9795 105.366 58.9551 105.366 58.9355C105.385 58.8525 105.414 58.7793 105.453 58.7158C105.492 58.6475 105.541 58.5889 105.6 58.54C105.663 58.4863 105.737 58.4448 105.82 58.4155C105.903 58.3862 106 58.3716 106.113 58.3716C106.22 58.3716 106.318 58.3862 106.406 58.4155C106.498 58.4448 106.576 58.4912 106.64 58.5547C106.703 58.623 106.752 58.7134 106.786 58.8257C106.821 58.9331 106.838 59.0649 106.838 59.2212V65H108.449V59.2358C108.449 58.8208 108.405 58.4668 108.317 58.1738C108.234 57.876 108.115 57.6343 107.958 57.4487C107.802 57.2729 107.617 57.1436 107.402 57.0605C107.192 56.9727 106.96 56.9287 106.706 56.9287C106.511 56.9287 106.33 56.9531 106.164 57.002C106.003 57.0508 105.856 57.1191 105.724 57.207C105.622 57.2754 105.527 57.3584 105.439 57.4561C105.351 57.5537 105.273 57.6587 105.204 57.771C105.156 57.6489 105.097 57.5415 105.029 57.4487C104.96 57.3511 104.882 57.2681 104.794 57.1997C104.682 57.1069 104.548 57.0386 104.391 56.9946C104.235 56.9507 104.059 56.9287 103.864 56.9287C103.488 56.9287 103.166 57.019 102.897 57.1997C102.634 57.3804 102.426 57.6294 102.275 57.9468L102.223 57.0752ZM112.756 68.0469H114.506V64.2822C114.599 64.3848 114.699 64.48 114.807 64.5679C114.914 64.6558 115.026 64.7339 115.143 64.8022C115.344 64.9146 115.561 65 115.795 65.0586C116.035 65.1172 116.296 65.1465 116.579 65.1465C117.077 65.1465 117.519 65.0439 117.905 64.8389C118.29 64.6338 118.615 64.3506 118.879 63.9893C119.143 63.6328 119.34 63.208 119.472 62.7148C119.609 62.2217 119.677 61.6895 119.677 61.1182V60.9644C119.677 60.3687 119.609 59.8242 119.472 59.3311C119.335 58.833 119.138 58.4058 118.879 58.0493C118.615 57.6929 118.288 57.417 117.897 57.2217C117.512 57.0264 117.065 56.9287 116.557 56.9287C116.298 56.9287 116.054 56.958 115.825 57.0166C115.595 57.0703 115.385 57.1484 115.195 57.251C115.048 57.3291 114.912 57.4219 114.785 57.5293C114.658 57.6367 114.54 57.7563 114.433 57.8882L114.367 57.0752H112.756V68.0469ZM117.927 60.9644V61.1182C117.927 61.4697 117.893 61.8042 117.824 62.1216C117.756 62.4341 117.646 62.7124 117.495 62.9565C117.348 63.1958 117.158 63.3862 116.923 63.5278C116.694 63.6646 116.415 63.7329 116.088 63.7329C115.888 63.7329 115.705 63.7109 115.539 63.667C115.373 63.6182 115.224 63.5547 115.092 63.4766C114.965 63.3936 114.853 63.2959 114.755 63.1836C114.658 63.0713 114.575 62.9468 114.506 62.8101V59.2871C114.584 59.1406 114.675 59.0088 114.777 58.8916C114.885 58.7744 115.009 58.6768 115.151 58.5986C115.273 58.5254 115.412 58.4692 115.568 58.4302C115.725 58.3911 115.893 58.3716 116.074 58.3716C116.401 58.3716 116.682 58.4399 116.916 58.5767C117.15 58.7134 117.343 58.8989 117.495 59.1333C117.641 59.3677 117.748 59.6436 117.817 59.9609C117.89 60.2734 117.927 60.6079 117.927 60.9644ZM135.659 60.9717V61.1255C135.659 61.6919 135.732 62.2217 135.879 62.7148C136.025 63.2031 136.235 63.6279 136.508 63.9893C136.777 64.3506 137.107 64.6338 137.497 64.8389C137.888 65.0439 138.325 65.1465 138.808 65.1465C139.096 65.1465 139.365 65.1147 139.614 65.0513C139.863 64.9927 140.09 64.9072 140.295 64.7949C140.427 64.7217 140.549 64.6362 140.661 64.5386C140.778 64.4409 140.888 64.3335 140.991 64.2163V64.8975C140.991 65.2393 140.942 65.542 140.844 65.8057C140.747 66.0693 140.608 66.2891 140.427 66.4648C140.241 66.6455 140.019 66.7822 139.76 66.875C139.502 66.9678 139.211 67.0142 138.889 67.0142C138.708 67.0142 138.527 66.9946 138.347 66.9556C138.166 66.9214 137.986 66.8628 137.805 66.7798C137.624 66.6968 137.446 66.5845 137.27 66.4429C137.094 66.3062 136.923 66.1377 136.757 65.9375L136.054 66.7505C136.235 67.0093 136.45 67.2266 136.699 67.4023C136.953 67.5781 137.216 67.7173 137.49 67.8198C137.758 67.9272 138.025 68.0029 138.288 68.0469C138.552 68.0957 138.786 68.1201 138.991 68.1201C139.489 68.1201 139.944 68.0469 140.354 67.9004C140.764 67.7539 141.118 67.5391 141.416 67.2559C141.709 66.9727 141.936 66.6284 142.097 66.2231C142.263 65.8179 142.346 65.354 142.346 64.8315V57.0752H141.115L141.049 57.9395C140.957 57.8223 140.857 57.7148 140.749 57.6172C140.647 57.5195 140.537 57.4341 140.42 57.3608C140.205 57.2192 139.963 57.1118 139.694 57.0386C139.431 56.9653 139.14 56.9287 138.823 56.9287C138.33 56.9287 137.888 57.0288 137.497 57.229C137.107 57.4292 136.775 57.7075 136.501 58.064C136.228 58.4204 136.018 58.8477 135.871 59.3457C135.73 59.8389 135.659 60.3809 135.659 60.9717ZM137.014 61.1255V60.9717C137.014 60.5859 137.053 60.2197 137.131 59.873C137.214 59.5215 137.343 59.2114 137.519 58.9429C137.69 58.6792 137.91 58.4692 138.178 58.313C138.452 58.1567 138.779 58.0786 139.16 58.0786C139.384 58.0786 139.59 58.1079 139.775 58.1665C139.961 58.2202 140.129 58.2959 140.28 58.3936C140.432 58.4961 140.566 58.6157 140.683 58.7524C140.8 58.8892 140.903 59.0405 140.991 59.2065V62.8394C140.903 63.0103 140.8 63.1665 140.683 63.3081C140.566 63.4497 140.434 63.5718 140.288 63.6743C140.136 63.7769 139.965 63.8574 139.775 63.916C139.59 63.9697 139.38 63.9966 139.145 63.9966C138.769 63.9966 138.447 63.9209 138.178 63.7695C137.91 63.6133 137.69 63.4033 137.519 63.1396C137.343 62.876 137.214 62.5708 137.131 62.2241C137.053 61.8774 137.014 61.5112 137.014 61.1255ZM152.629 65H154.043V64.8828C153.955 64.6631 153.887 64.4067 153.838 64.1138C153.789 63.8159 153.764 63.5352 153.764 63.2715V59.5874C153.764 59.1431 153.684 58.7549 153.523 58.4229C153.362 58.0908 153.142 57.8125 152.864 57.5879C152.58 57.3682 152.246 57.2046 151.86 57.0972C151.474 56.9849 151.057 56.9287 150.608 56.9287C150.115 56.9287 149.673 56.9971 149.282 57.1338C148.896 57.2705 148.569 57.4487 148.301 57.6685C148.027 57.8931 147.817 58.1445 147.671 58.4229C147.529 58.7012 147.456 58.9844 147.451 59.2725H148.813C148.813 59.1064 148.852 58.9478 148.93 58.7964C149.013 58.6401 149.128 58.5059 149.275 58.3936C149.421 58.2812 149.599 58.1909 149.809 58.1226C150.024 58.0542 150.266 58.02 150.534 58.02C150.823 58.02 151.081 58.0566 151.311 58.1299C151.545 58.2031 151.743 58.3057 151.904 58.4375C152.065 58.5742 152.19 58.7378 152.278 58.9282C152.366 59.1187 152.409 59.3335 152.409 59.5728V60.1953H150.93C150.378 60.1953 149.878 60.249 149.428 60.3564C148.984 60.4639 148.603 60.625 148.286 60.8398C147.969 61.0596 147.722 61.333 147.546 61.6602C147.375 61.9873 147.29 62.3682 147.29 62.8027C147.29 63.1348 147.353 63.4448 147.48 63.7329C147.612 64.0161 147.798 64.2603 148.037 64.4653C148.271 64.6753 148.557 64.8413 148.894 64.9634C149.236 65.0854 149.616 65.1465 150.036 65.1465C150.295 65.1465 150.539 65.1196 150.769 65.0659C150.998 65.0122 151.216 64.939 151.421 64.8462C151.621 64.7534 151.804 64.646 151.97 64.5239C152.141 64.4019 152.295 64.2725 152.431 64.1357C152.446 64.3018 152.468 64.4629 152.497 64.6191C152.532 64.7705 152.575 64.8975 152.629 65ZM150.234 63.9673C149.97 63.9673 149.739 63.9331 149.538 63.8647C149.338 63.7964 149.172 63.7012 149.04 63.5791C148.908 63.4619 148.808 63.3203 148.74 63.1543C148.677 62.9883 148.645 62.8076 148.645 62.6123C148.645 62.4072 148.681 62.2241 148.755 62.063C148.833 61.9019 148.945 61.7627 149.092 61.6455C149.297 61.4795 149.573 61.3574 149.919 61.2793C150.271 61.1963 150.681 61.1548 151.15 61.1548H152.409V62.7588C152.331 62.915 152.224 63.0664 152.087 63.2129C151.95 63.3545 151.789 63.4814 151.604 63.5938C151.413 63.7061 151.203 63.7964 150.974 63.8647C150.744 63.9331 150.498 63.9673 150.234 63.9673ZM159.558 57.0752H158.342V65H159.631V58.6938C159.661 58.6157 159.697 58.5425 159.741 58.4741C159.79 58.4058 159.846 58.3447 159.91 58.291C159.993 58.2227 160.093 58.1714 160.21 58.1372C160.332 58.0981 160.474 58.0786 160.635 58.0786C160.781 58.0786 160.908 58.0981 161.016 58.1372C161.128 58.1714 161.221 58.2275 161.294 58.3057C161.372 58.3887 161.428 58.4937 161.462 58.6206C161.501 58.7476 161.521 58.894 161.521 59.0601V65H162.81V59.0674C162.81 59.0381 162.81 59.0137 162.81 58.9941C162.81 58.9697 162.81 58.9453 162.81 58.9209C162.825 58.7988 162.854 58.689 162.898 58.5913C162.942 58.4888 163.003 58.3984 163.081 58.3203C163.159 58.2471 163.257 58.1885 163.374 58.1445C163.491 58.1006 163.63 58.0786 163.791 58.0786C163.943 58.0786 164.075 58.0981 164.187 58.1372C164.304 58.1763 164.402 58.2349 164.48 58.313C164.553 58.396 164.609 58.501 164.648 58.6279C164.687 58.7549 164.707 58.9014 164.707 59.0674V65H165.996V59.082C165.996 58.7012 165.952 58.3716 165.864 58.0933C165.776 57.8101 165.649 57.5806 165.483 57.4048C165.332 57.2485 165.146 57.1313 164.927 57.0532C164.707 56.9702 164.46 56.9287 164.187 56.9287C163.987 56.9336 163.801 56.9604 163.63 57.0093C163.464 57.0581 163.313 57.124 163.176 57.207C163.069 57.2803 162.969 57.3657 162.876 57.4634C162.783 57.561 162.703 57.666 162.634 57.7783C162.58 57.6562 162.515 57.5464 162.436 57.4487C162.363 57.3511 162.28 57.2681 162.187 57.1997C162.06 57.1118 161.912 57.0459 161.741 57.002C161.575 56.9531 161.387 56.9287 161.177 56.9287C160.806 56.9336 160.488 57.0142 160.225 57.1704C159.966 57.3267 159.756 57.5439 159.595 57.8223L159.558 57.0752ZM173.95 65.1465C174.722 65.1465 175.369 64.9927 175.891 64.6851C176.418 64.3726 176.814 64.0161 177.078 63.6157L176.25 62.9712C176.001 63.2935 175.689 63.5522 175.313 63.7476C174.937 63.9429 174.507 64.0405 174.023 64.0405C173.657 64.0405 173.323 63.9722 173.02 63.8354C172.717 63.6987 172.459 63.5107 172.244 63.2715C172.034 63.0469 171.868 62.7881 171.746 62.4951C171.628 62.2021 171.553 61.8628 171.519 61.4771V61.4258H177.18V60.8179C177.18 60.2661 177.109 59.7534 176.968 59.2798C176.831 58.8062 176.621 58.3936 176.338 58.042C176.055 57.6953 175.698 57.4243 175.269 57.229C174.844 57.0288 174.346 56.9287 173.774 56.9287C173.32 56.9287 172.876 57.0215 172.441 57.207C172.012 57.3926 171.628 57.6587 171.292 58.0054C170.95 58.3569 170.676 58.7866 170.471 59.2944C170.266 59.7974 170.164 60.3687 170.164 61.0083V61.3159C170.164 61.8677 170.256 62.3779 170.442 62.8467C170.627 63.3154 170.886 63.7207 171.218 64.0625C171.55 64.4043 171.948 64.6704 172.412 64.8608C172.881 65.0513 173.394 65.1465 173.95 65.1465ZM173.774 58.042C174.121 58.042 174.419 58.1055 174.668 58.2324C174.922 58.3594 175.132 58.5254 175.298 58.7305C175.464 58.9355 175.593 59.1797 175.686 59.4629C175.779 59.7412 175.825 60.0024 175.825 60.2466V60.3125H171.563C171.616 59.9463 171.709 59.624 171.841 59.3457C171.978 59.0625 172.144 58.8232 172.339 58.6279C172.534 58.4375 172.754 58.2935 172.998 58.1958C173.242 58.0933 173.501 58.042 173.774 58.042Z" fill="#482D23"/>
</svg>
