<svg width="22" height="22" viewBox="0 0 22 22" fill="none" xmlns="http://www.w3.org/2000/svg">
<path d="M21.8334 11C21.8334 13.8732 20.692 16.6287 18.6604 18.6603C16.6288 20.692 13.8733 21.8333 11.0001 21.8333C9.57743 21.8333 8.1687 21.5531 6.85434 21.0087C5.53998 20.4643 4.34573 19.6663 3.33976 18.6603C1.30811 16.6287 0.166748 13.8732 0.166748 11C0.166748 8.12681 1.30811 5.37131 3.33976 3.33967C5.3714 1.30802 8.1269 0.166656 11.0001 0.166656C12.4227 0.166656 13.8315 0.446869 15.1458 0.991295C16.4602 1.53572 17.6544 2.3337 18.6604 3.33967C19.6664 4.34563 20.4643 5.53989 21.0088 6.85425C21.5532 8.16861 21.8334 9.57734 21.8334 11ZM19.6667 11C19.6667 8.70145 18.7537 6.49705 17.1283 4.87173C15.503 3.24642 13.2986 2.33332 11.0001 2.33332C8.70154 2.33332 6.49714 3.24642 4.87182 4.87173C3.24651 6.49705 2.33341 8.70145 2.33341 11C2.33341 13.2985 3.24651 15.5029 4.87182 17.1282C6.49714 18.7536 8.70154 19.6667 11.0001 19.6667C13.2986 19.6667 15.503 18.7536 17.1283 17.1282C18.7537 15.5029 19.6667 13.2985 19.6667 11ZM7.31675 15.9833L12.3001 11L7.31675 6.01666L8.83341 4.49999L15.3334 11L8.83341 17.5L7.31675 15.9833Z" fill="white"/>
</svg>
