<svg width="242" height="69" viewBox="0 0 242 69" fill="none" xmlns="http://www.w3.org/2000/svg">
<path d="M10.4094 50H16.0344V28.836H25.4328V24.6407H16.0344V23.0938C16.0344 22.2032 16.1438 21.4219 16.3625 20.75C16.5969 20.0782 16.9406 19.5157 17.3938 19.0625C17.8781 18.5782 18.4953 18.211 19.2453 17.961C20.0109 17.711 20.9172 17.586 21.9641 17.586C22.9641 17.586 23.8547 17.6485 24.6359 17.7735C25.4328 17.8985 26.1438 18.0469 26.7688 18.2188L27.2141 13.7422C26.7453 13.6485 26.2844 13.5625 25.8313 13.4844C25.3781 13.3907 24.9328 13.3125 24.4953 13.25C23.9641 13.1719 23.4172 13.1094 22.8547 13.0625C22.3078 13 21.7453 12.9688 21.1672 12.9688C19.5266 12.9688 18.0422 13.1875 16.7141 13.625C15.4016 14.0625 14.2766 14.7032 13.3391 15.5469C12.4016 16.4063 11.675 17.4688 11.1594 18.7344C10.6594 19.9844 10.4094 21.4375 10.4094 23.0938V24.6407H3.6125V28.836H10.4094V50ZM28.2313 37.086V37.5782C28.2313 39.4375 28.4969 41.1485 29.0281 42.711C29.5594 44.2735 30.3328 45.6328 31.3484 46.7891C32.3484 47.9453 33.5828 48.8516 35.0516 49.5078C36.5203 50.1641 38.1844 50.4922 40.0438 50.4922C41.8875 50.4922 43.5359 50.1641 44.9891 49.5078C46.4578 48.8516 47.6922 47.9453 48.6922 46.7891C49.6922 45.6328 50.4578 44.2735 50.9891 42.711C51.5203 41.1485 51.7859 39.4375 51.7859 37.5782V37.086C51.7859 35.2422 51.5203 33.5391 50.9891 31.9766C50.4578 30.3985 49.6922 29.0313 48.6922 27.875C47.6766 26.7188 46.4344 25.8125 44.9656 25.1563C43.5125 24.5 41.8563 24.1719 39.9969 24.1719C38.1375 24.1719 36.4813 24.5 35.0281 25.1563C33.575 25.8125 32.3484 26.7188 31.3484 27.875C30.3328 29.0313 29.5594 30.3985 29.0281 31.9766C28.4969 33.5391 28.2313 35.2422 28.2313 37.086ZM33.8328 37.5782V37.086C33.8328 35.9766 33.95 34.9141 34.1844 33.8985C34.4344 32.8828 34.8172 31.9922 35.3328 31.2266C35.8328 30.461 36.4656 29.8516 37.2313 29.3985C38.0125 28.9453 38.9344 28.7188 39.9969 28.7188C41.075 28.7188 41.9969 28.9453 42.7625 29.3985C43.5438 29.8516 44.1922 30.461 44.7078 31.2266C45.1922 31.9922 45.5594 32.8828 45.8094 33.8985C46.0594 34.9141 46.1844 35.9766 46.1844 37.086V37.5782C46.1844 38.7188 46.0594 39.7969 45.8094 40.8125C45.575 41.8282 45.2078 42.7188 44.7078 43.4844C44.2078 44.25 43.5672 44.8594 42.7859 45.3125C42.0047 45.75 41.0906 45.9688 40.0438 45.9688C38.9656 45.9688 38.0359 45.75 37.2547 45.3125C36.4734 44.8594 35.8328 44.25 35.3328 43.4844C34.8172 42.7188 34.4344 41.8282 34.1844 40.8125C33.95 39.7969 33.8328 38.7188 33.8328 37.5782ZM72.0219 24.1719C70.2719 24.1719 68.6703 24.5782 67.2172 25.3907C65.7797 26.2032 64.5453 27.3203 63.5141 28.7422L63.4906 28.1563L63.2563 24.6407H58.0063V50H63.6078V34.3438C63.9047 33.5938 64.2719 32.9297 64.7094 32.3516C65.1469 31.7735 65.6781 31.2969 66.3031 30.9219C66.8813 30.5313 67.5453 30.2422 68.2953 30.0547C69.0453 29.8672 69.8891 29.7735 70.8266 29.7735C71.6547 29.7735 72.4828 29.8203 73.3109 29.9141C74.1547 30.0078 75.0063 30.1485 75.8656 30.336L76.6625 24.8047C76.1781 24.6328 75.5063 24.4844 74.6469 24.3594C73.8031 24.2344 72.9281 24.1719 72.0219 24.1719ZM81.8281 50H86.5859L89.7969 35.6094L90.3594 32.4688L90.9453 35.6094L94.2266 50H98.9844L103.883 24.6407H98.7969L96.5234 40.1094L96.0781 43.2032L95.5391 40.1328L92.2344 24.6407H88.5547L85.25 40.1797L84.7344 43.1094L84.3359 40.1797L81.9922 24.6407H76.9297L81.8281 50ZM121.142 50H126.861V49.6016C126.548 48.9453 126.306 48.1641 126.134 47.2578C125.978 46.336 125.9 45.3047 125.9 44.1641V32.8907C125.9 31.4532 125.634 30.1875 125.103 29.0938C124.572 27.9844 123.838 27.0703 122.9 26.3516C121.963 25.6328 120.845 25.0938 119.548 24.7344C118.267 24.3594 116.884 24.1719 115.4 24.1719C113.744 24.1719 112.267 24.3907 110.97 24.8282C109.689 25.25 108.611 25.8282 107.736 26.5625C106.83 27.2813 106.142 28.1094 105.673 29.0469C105.205 29.9844 104.963 30.961 104.947 31.9766H110.572C110.572 31.4922 110.658 31.0391 110.83 30.6172C111.017 30.1797 111.298 29.8125 111.673 29.5157C112.048 29.1875 112.517 28.9297 113.08 28.7422C113.658 28.5547 114.33 28.461 115.095 28.461C115.939 28.461 116.681 28.5703 117.322 28.7891C117.978 28.9922 118.533 29.2891 118.986 29.6797C119.408 30.0703 119.728 30.5313 119.947 31.0625C120.181 31.5938 120.298 32.1875 120.298 32.8438V34.5547H116.22C114.392 34.5547 112.752 34.7266 111.298 35.0703C109.861 35.4141 108.65 35.9141 107.666 36.5703C106.603 37.2735 105.791 38.1641 105.228 39.2422C104.681 40.3047 104.408 41.5313 104.408 42.9219C104.408 44 104.619 45.0078 105.041 45.9453C105.478 46.8672 106.088 47.6563 106.869 48.3125C107.634 48.9844 108.556 49.5157 109.634 49.9063C110.728 50.2813 111.931 50.4688 113.244 50.4688C114.056 50.4688 114.814 50.3907 115.517 50.2344C116.22 50.0782 116.877 49.8594 117.486 49.5782C118.095 49.3125 118.642 49 119.127 48.6407C119.627 48.2657 120.072 47.875 120.463 47.4688C120.541 47.9532 120.627 48.4219 120.72 48.875C120.83 49.3125 120.97 49.6875 121.142 50ZM114.322 45.9688C113.603 45.9688 112.978 45.8828 112.447 45.711C111.916 45.5235 111.47 45.2735 111.111 44.961C110.752 44.6485 110.478 44.2735 110.291 43.836C110.103 43.3828 110.009 42.8985 110.009 42.3828C110.009 41.7578 110.119 41.1953 110.338 40.6953C110.572 40.1953 110.923 39.7657 111.392 39.4063C111.923 38.9844 112.634 38.6641 113.525 38.4453C114.416 38.211 115.47 38.0938 116.689 38.0938H120.298V42.7813C120.095 43.1875 119.806 43.5782 119.431 43.9532C119.056 44.3282 118.611 44.6641 118.095 44.961C117.58 45.2578 117.002 45.5 116.361 45.6875C115.736 45.875 115.056 45.9688 114.322 45.9688ZM147.706 24.1719C145.956 24.1719 144.355 24.5782 142.902 25.3907C141.464 26.2032 140.23 27.3203 139.198 28.7422L139.175 28.1563L138.941 24.6407H133.691V50H139.292V34.3438C139.589 33.5938 139.956 32.9297 140.394 32.3516C140.831 31.7735 141.363 31.2969 141.988 30.9219C142.566 30.5313 143.23 30.2422 143.98 30.0547C144.73 29.8672 145.573 29.7735 146.511 29.7735C147.339 29.7735 148.167 29.8203 148.995 29.9141C149.839 30.0078 150.691 30.1485 151.55 30.336L152.347 24.8047C151.863 24.6328 151.191 24.4844 150.331 24.3594C149.488 24.2344 148.613 24.1719 147.706 24.1719ZM154.653 37.1328V37.625C154.653 39.4532 154.887 41.1563 155.356 42.7344C155.825 44.2969 156.489 45.6485 157.348 46.7891C158.208 47.9453 159.255 48.8516 160.489 49.5078C161.723 50.1485 163.114 50.4688 164.661 50.4688C166.13 50.4688 167.427 50.2032 168.552 49.6719C169.677 49.125 170.645 48.3516 171.458 47.3516L171.716 50H176.802V14H171.2V27.0078C170.387 26.1016 169.45 25.4063 168.387 24.9219C167.341 24.4219 166.114 24.1719 164.708 24.1719C163.145 24.1719 161.739 24.4922 160.489 25.1328C159.255 25.7578 158.208 26.6407 157.348 27.7813C156.473 28.9219 155.802 30.2891 155.333 31.8828C154.88 33.461 154.653 35.211 154.653 37.1328ZM160.255 37.625V37.1328C160.255 35.9922 160.364 34.9219 160.583 33.9219C160.802 32.9063 161.153 32.0157 161.637 31.25C162.091 30.4844 162.684 29.8828 163.419 29.4453C164.169 29.0078 165.067 28.7891 166.114 28.7891C167.364 28.7891 168.395 29.0703 169.208 29.6328C170.036 30.1797 170.7 30.9219 171.2 31.8594V42.7578C170.7 43.711 170.036 44.4688 169.208 45.0313C168.38 45.5782 167.333 45.8516 166.067 45.8516C165.036 45.8516 164.153 45.6407 163.419 45.2188C162.684 44.7813 162.083 44.1797 161.614 43.4141C161.145 42.6797 160.802 41.8125 160.583 40.8125C160.364 39.8125 160.255 38.75 160.255 37.625Z" fill="#222326"/>
<path d="M13.3976 62.854C13.3976 62.981 13.3683 63.0981 13.3097 63.2056C13.256 63.3081 13.173 63.4033 13.0606 63.4912C12.9239 63.5986 12.7408 63.6841 12.5113 63.7476C12.2867 63.811 12.023 63.8428 11.7203 63.8428C11.4957 63.8428 11.2735 63.8208 11.0538 63.7769C10.8341 63.728 10.6388 63.6499 10.4679 63.5425C10.2921 63.4399 10.1456 63.3057 10.0284 63.1396C9.91611 62.9688 9.85264 62.7612 9.83799 62.5171H8.13877C8.13877 62.8442 8.2169 63.1665 8.37315 63.4839C8.5294 63.8013 8.75889 64.082 9.06162 64.3262C9.35947 64.5752 9.72813 64.7754 10.1676 64.9268C10.6119 65.0781 11.1197 65.1538 11.691 65.1538C12.2037 65.1538 12.67 65.0952 13.0899 64.978C13.5099 64.8608 13.8712 64.6973 14.1739 64.4873C14.4718 64.2773 14.7013 64.0259 14.8624 63.7329C15.0284 63.4399 15.1114 63.1177 15.1114 62.7661C15.1114 62.4048 15.0333 62.0923 14.8771 61.8286C14.7208 61.5649 14.5011 61.3354 14.2179 61.1401C13.9347 60.9546 13.5929 60.7983 13.1925 60.6714C12.7921 60.5444 12.3502 60.437 11.8668 60.3491C11.5201 60.2905 11.232 60.2246 11.0025 60.1514C10.7779 60.0781 10.6021 59.9976 10.4752 59.9097C10.3385 59.8267 10.2433 59.7314 10.1896 59.624C10.1358 59.5117 10.109 59.3872 10.109 59.2505C10.109 59.1187 10.1407 58.9941 10.2042 58.877C10.2677 58.7549 10.3629 58.6499 10.4898 58.562C10.6168 58.4644 10.7779 58.3887 10.9732 58.335C11.1734 58.2764 11.4054 58.2471 11.669 58.2471C11.9571 58.2471 12.2086 58.2861 12.4234 58.3643C12.6383 58.4375 12.8141 58.5376 12.9508 58.6646C13.068 58.772 13.1559 58.894 13.2145 59.0308C13.2779 59.1626 13.3097 59.3018 13.3097 59.4482H15.0602C15.0602 59.0918 14.982 58.7598 14.8258 58.4521C14.6695 58.1445 14.4474 57.8784 14.1593 57.6538C13.8663 57.4292 13.5099 57.2534 13.0899 57.1265C12.67 56.9946 12.1964 56.9287 11.669 56.9287C11.1759 56.9287 10.7267 56.9922 10.3214 57.1191C9.921 57.2461 9.5792 57.4194 9.296 57.6392C9.00791 57.8589 8.78574 58.1152 8.62949 58.4082C8.47813 58.6963 8.40244 59.0015 8.40244 59.3237C8.40244 59.6606 8.47813 59.9561 8.62949 60.21C8.78086 60.4639 8.99082 60.6836 9.25938 60.8691C9.53281 61.0645 9.85752 61.2305 10.2335 61.3672C10.6144 61.5039 11.0343 61.6187 11.4933 61.7114C11.8595 61.7798 12.1646 61.853 12.4088 61.9312C12.6529 62.0093 12.8507 62.0923 13.0021 62.1802C13.1437 62.2778 13.2438 62.3804 13.3023 62.4878C13.3658 62.5952 13.3976 62.7173 13.3976 62.854ZM20.4373 65H21.9241L22.9275 60.5029L23.1033 59.5215L23.2864 60.5029L24.3118 65H25.7986L27.3294 57.0752H25.74L25.0296 61.9092L24.8904 62.876L24.722 61.9165L23.6893 57.0752H22.5394L21.5066 61.9312L21.3455 62.8467L21.221 61.9312L20.4886 57.0752H18.9065L20.4373 65ZM36.398 65H38.1851V64.8755C38.0874 64.6704 38.0117 64.4263 37.958 64.1431C37.9092 63.855 37.8848 63.5327 37.8848 63.1763V59.6533C37.8848 59.2041 37.8018 58.8086 37.6357 58.4668C37.4697 58.1201 37.2402 57.8345 36.9473 57.6099C36.6543 57.3853 36.3052 57.2168 35.8999 57.1045C35.4995 56.9873 35.0674 56.9287 34.6035 56.9287C34.0859 56.9287 33.6245 56.9971 33.2192 57.1338C32.8188 57.2656 32.4819 57.4463 32.2085 57.6758C31.9253 57.9004 31.7105 58.1592 31.564 58.4521C31.4175 58.7451 31.3418 59.0503 31.3369 59.3677H33.0947C33.0947 59.2163 33.1216 59.0747 33.1753 58.9429C33.2339 58.8062 33.3218 58.6914 33.439 58.5986C33.5562 58.4961 33.7026 58.4155 33.8784 58.3569C34.0591 58.2983 34.269 58.269 34.5083 58.269C34.772 58.269 35.0039 58.3032 35.2041 58.3716C35.4092 58.4351 35.5825 58.5278 35.7241 58.6499C35.856 58.772 35.9561 58.916 36.0244 59.082C36.0977 59.248 36.1343 59.4336 36.1343 59.6387V60.1733H34.8599C34.2886 60.1733 33.7759 60.2271 33.3218 60.3345C32.8726 60.4419 32.4941 60.5981 32.1865 60.8032C31.8545 61.0229 31.6006 61.3013 31.4248 61.6382C31.2539 61.9702 31.1685 62.3535 31.1685 62.7881C31.1685 63.125 31.2344 63.4399 31.3662 63.7329C31.5029 64.021 31.6934 64.2676 31.9375 64.4727C32.1768 64.6826 32.4648 64.8486 32.8018 64.9707C33.1436 65.0879 33.5195 65.1465 33.9297 65.1465C34.1836 65.1465 34.4204 65.1221 34.6401 65.0732C34.8599 65.0244 35.0649 64.9561 35.2554 64.8682C35.4458 64.7852 35.6167 64.6875 35.7681 64.5752C35.9243 64.458 36.0635 64.3359 36.1855 64.209C36.21 64.3604 36.2368 64.5068 36.2661 64.6484C36.3003 64.7852 36.3442 64.9023 36.398 65ZM34.2666 63.7402C34.042 63.7402 33.8467 63.7134 33.6807 63.6597C33.5147 63.6011 33.3755 63.5229 33.2632 63.4253C33.1509 63.3276 33.0654 63.2104 33.0068 63.0737C32.9482 62.9321 32.9189 62.7808 32.9189 62.6196C32.9189 62.4243 32.9531 62.2485 33.0215 62.0923C33.0947 61.936 33.2046 61.8018 33.3511 61.6895C33.5171 61.5576 33.7393 61.4575 34.0176 61.3892C34.2959 61.3159 34.6255 61.2793 35.0063 61.2793H36.1343V62.7441C36.0708 62.8711 35.9805 62.9932 35.8633 63.1104C35.7461 63.2275 35.6069 63.3325 35.4458 63.4253C35.2847 63.5181 35.104 63.5938 34.9038 63.6523C34.7085 63.7109 34.4961 63.7402 34.2666 63.7402ZM42.6687 60.979V61.1328C42.6687 61.7041 42.7419 62.2363 42.8884 62.7295C43.0397 63.2178 43.2522 63.6401 43.5256 63.9966C43.8039 64.3579 44.1384 64.6411 44.529 64.8462C44.9196 65.0464 45.3591 65.1465 45.8474 65.1465C46.1159 65.1465 46.3649 65.1172 46.5944 65.0586C46.8239 65.0049 47.0339 64.9243 47.2243 64.8169C47.3513 64.7485 47.4685 64.668 47.5759 64.5752C47.6882 64.4824 47.7956 64.3823 47.8981 64.2749V64.8242C47.8981 65.1221 47.8542 65.3882 47.7663 65.6226C47.6833 65.8569 47.5637 66.0547 47.4074 66.2158C47.2365 66.3818 47.029 66.5088 46.7849 66.5967C46.5456 66.6846 46.2697 66.7285 45.9572 66.7285C45.7766 66.7285 45.5983 66.709 45.4226 66.6699C45.2468 66.6357 45.0734 66.5796 44.9025 66.5015C44.7316 66.4233 44.5632 66.3208 44.3972 66.1938C44.236 66.0718 44.0847 65.9253 43.9431 65.7544L43.1154 66.8164C43.2912 67.0508 43.5012 67.251 43.7453 67.417C43.9895 67.583 44.2458 67.7173 44.5144 67.8198C44.7829 67.9224 45.0515 67.998 45.32 68.0469C45.5886 68.0957 45.8352 68.1201 46.0598 68.1201C46.592 68.1201 47.0778 68.0444 47.5173 67.8931C47.9616 67.7466 48.3425 67.5317 48.6599 67.2485C48.9724 66.9604 49.2141 66.6089 49.385 66.1938C49.5607 65.7837 49.6486 65.3125 49.6486 64.7803V57.0752H48.0593L47.986 57.8735C47.8884 57.7563 47.7834 57.6489 47.6711 57.5513C47.5588 57.4487 47.4392 57.3608 47.3122 57.2876C47.1169 57.1704 46.8996 57.0825 46.6604 57.0239C46.4211 56.9604 46.155 56.9287 45.862 56.9287C45.3689 56.9287 44.9245 57.0288 44.529 57.229C44.1384 57.4243 43.8039 57.7002 43.5256 58.0566C43.2473 58.4131 43.0349 58.8403 42.8884 59.3384C42.7419 59.8315 42.6687 60.3784 42.6687 60.979ZM44.4265 61.1328V60.979C44.4265 60.6226 44.4631 60.2881 44.5363 59.9756C44.6096 59.6582 44.7243 59.3799 44.8806 59.1406C45.0319 58.9014 45.2248 58.7134 45.4592 58.5767C45.6936 58.4399 45.9743 58.3716 46.3015 58.3716C46.487 58.3716 46.6579 58.3936 46.8142 58.4375C46.9704 58.4766 47.112 58.5303 47.239 58.5986C47.3806 58.6816 47.5051 58.7817 47.6125 58.8989C47.7248 59.0161 47.82 59.1479 47.8981 59.2944V62.7661C47.82 62.9077 47.7297 63.0371 47.6272 63.1543C47.5246 63.2715 47.4074 63.3716 47.2756 63.4546C47.1438 63.5327 46.9948 63.5938 46.8288 63.6377C46.6677 63.6816 46.487 63.7036 46.2868 63.7036C45.9646 63.7036 45.6862 63.6377 45.4519 63.5059C45.2175 63.3691 45.0246 63.1812 44.8732 62.9419C44.717 62.7124 44.6022 62.4414 44.529 62.1289C44.4606 61.8164 44.4265 61.4844 44.4265 61.1328ZM71.1915 62.854C71.1915 62.981 71.1622 63.0981 71.1036 63.2056C71.0499 63.3081 70.9669 63.4033 70.8546 63.4912C70.7179 63.5986 70.5348 63.6841 70.3053 63.7476C70.0807 63.811 69.817 63.8428 69.5143 63.8428C69.2896 63.8428 69.0675 63.8208 68.8478 63.7769C68.628 63.728 68.4327 63.6499 68.2618 63.5425C68.086 63.4399 67.9396 63.3057 67.8224 63.1396C67.7101 62.9688 67.6466 62.7612 67.6319 62.5171H65.9327C65.9327 62.8442 66.0108 63.1665 66.1671 63.4839C66.3233 63.8013 66.5528 64.082 66.8556 64.3262C67.1534 64.5752 67.5221 64.7754 67.9615 64.9268C68.4059 65.0781 68.9137 65.1538 69.485 65.1538C69.9977 65.1538 70.464 65.0952 70.8839 64.978C71.3038 64.8608 71.6651 64.6973 71.9679 64.4873C72.2657 64.2773 72.4952 64.0259 72.6563 63.7329C72.8224 63.4399 72.9054 63.1177 72.9054 62.7661C72.9054 62.4048 72.8272 62.0923 72.671 61.8286C72.5147 61.5649 72.295 61.3354 72.0118 61.1401C71.7286 60.9546 71.3868 60.7983 70.9864 60.6714C70.586 60.5444 70.1441 60.437 69.6607 60.3491C69.3141 60.2905 69.026 60.2246 68.7965 60.1514C68.5719 60.0781 68.3961 59.9976 68.2691 59.9097C68.1324 59.8267 68.0372 59.7314 67.9835 59.624C67.9298 59.5117 67.9029 59.3872 67.9029 59.2505C67.9029 59.1187 67.9347 58.9941 67.9981 58.877C68.0616 58.7549 68.1568 58.6499 68.2838 58.562C68.4107 58.4644 68.5719 58.3887 68.7672 58.335C68.9674 58.2764 69.1993 58.2471 69.463 58.2471C69.7511 58.2471 70.0025 58.2861 70.2174 58.3643C70.4322 58.4375 70.608 58.5376 70.7447 58.6646C70.8619 58.772 70.9498 58.894 71.0084 59.0308C71.0719 59.1626 71.1036 59.3018 71.1036 59.4482H72.8541C72.8541 59.0918 72.776 58.7598 72.6197 58.4521C72.4635 58.1445 72.2413 57.8784 71.9532 57.6538C71.6603 57.4292 71.3038 57.2534 70.8839 57.1265C70.464 56.9946 69.9903 56.9287 69.463 56.9287C68.9698 56.9287 68.5206 56.9922 68.1153 57.1191C67.7149 57.2461 67.3731 57.4194 67.0899 57.6392C66.8019 57.8589 66.5797 58.1152 66.4234 58.4082C66.2721 58.6963 66.1964 59.0015 66.1964 59.3237C66.1964 59.6606 66.2721 59.9561 66.4234 60.21C66.5748 60.4639 66.7848 60.6836 67.0533 60.8691C67.3268 61.0645 67.6515 61.2305 68.0274 61.3672C68.4083 61.5039 68.8282 61.6187 69.2872 61.7114C69.6534 61.7798 69.9586 61.853 70.2027 61.9312C70.4469 62.0093 70.6446 62.0923 70.796 62.1802C70.9376 62.2778 71.0377 62.3804 71.0963 62.4878C71.1598 62.5952 71.1915 62.7173 71.1915 62.854ZM81.0877 55.1416H79.3299V57.0752H77.4109V58.3862H79.3299V62.2827C79.3299 62.7905 79.3958 63.2251 79.5276 63.5864C79.6644 63.9478 79.8523 64.2432 80.0916 64.4727C80.3309 64.707 80.6165 64.8804 80.9485 64.9927C81.2855 65.1001 81.6541 65.1538 82.0545 65.1538C82.2742 65.1538 82.4939 65.1416 82.7137 65.1172C82.9383 65.0977 83.1531 65.0684 83.3582 65.0293C83.5633 64.9902 83.7537 64.9438 83.9295 64.8901C84.1102 64.8315 84.264 64.7632 84.3909 64.6851L84.2005 63.4766C84.1126 63.4961 84.0027 63.5205 83.8709 63.5498C83.7439 63.5742 83.6072 63.5962 83.4607 63.6157C83.3094 63.6401 83.1531 63.6597 82.992 63.6743C82.8309 63.689 82.6746 63.6963 82.5232 63.6963C82.3133 63.6963 82.1204 63.6719 81.9446 63.623C81.7689 63.5742 81.6175 63.4912 81.4905 63.374C81.3636 63.2617 81.2635 63.1079 81.1902 62.9126C81.1219 62.7124 81.0877 62.4658 81.0877 62.1729V58.3862H84.0687V57.0752H81.0877V55.1416ZM94.1919 65H95.979V64.8755C95.8813 64.6704 95.8057 64.4263 95.752 64.1431C95.7031 63.855 95.6787 63.5327 95.6787 63.1763V59.6533C95.6787 59.2041 95.5957 58.8086 95.4297 58.4668C95.2637 58.1201 95.0342 57.8345 94.7412 57.6099C94.4482 57.3853 94.0991 57.2168 93.6938 57.1045C93.2935 56.9873 92.8613 56.9287 92.3975 56.9287C91.8799 56.9287 91.4185 56.9971 91.0132 57.1338C90.6128 57.2656 90.2759 57.4463 90.0024 57.6758C89.7192 57.9004 89.5044 58.1592 89.3579 58.4521C89.2114 58.7451 89.1357 59.0503 89.1309 59.3677H90.8887C90.8887 59.2163 90.9155 59.0747 90.9692 58.9429C91.0278 58.8062 91.1157 58.6914 91.2329 58.5986C91.3501 58.4961 91.4966 58.4155 91.6724 58.3569C91.853 58.2983 92.063 58.269 92.3022 58.269C92.5659 58.269 92.7979 58.3032 92.998 58.3716C93.2031 58.4351 93.3765 58.5278 93.5181 58.6499C93.6499 58.772 93.75 58.916 93.8184 59.082C93.8916 59.248 93.9282 59.4336 93.9282 59.6387V60.1733H92.6538C92.0825 60.1733 91.5698 60.2271 91.1157 60.3345C90.6665 60.4419 90.2881 60.5981 89.9805 60.8032C89.6484 61.0229 89.3945 61.3013 89.2188 61.6382C89.0479 61.9702 88.9624 62.3535 88.9624 62.7881C88.9624 63.125 89.0283 63.4399 89.1602 63.7329C89.2969 64.021 89.4873 64.2676 89.7314 64.4727C89.9707 64.6826 90.2588 64.8486 90.5957 64.9707C90.9375 65.0879 91.3135 65.1465 91.7236 65.1465C91.9775 65.1465 92.2144 65.1221 92.4341 65.0732C92.6538 65.0244 92.8589 64.9561 93.0493 64.8682C93.2397 64.7852 93.4106 64.6875 93.562 64.5752C93.7183 64.458 93.8574 64.3359 93.9795 64.209C94.0039 64.3604 94.0308 64.5068 94.0601 64.6484C94.0942 64.7852 94.1382 64.9023 94.1919 65ZM92.0605 63.7402C91.8359 63.7402 91.6406 63.7134 91.4746 63.6597C91.3086 63.6011 91.1694 63.5229 91.0571 63.4253C90.9448 63.3276 90.8594 63.2104 90.8008 63.0737C90.7422 62.9321 90.7129 62.7808 90.7129 62.6196C90.7129 62.4243 90.7471 62.2485 90.8154 62.0923C90.8887 61.936 90.9985 61.8018 91.145 61.6895C91.311 61.5576 91.5332 61.4575 91.8115 61.3892C92.0898 61.3159 92.4194 61.2793 92.8003 61.2793H93.9282V62.7441C93.8647 62.8711 93.7744 62.9932 93.6572 63.1104C93.54 63.2275 93.4009 63.3325 93.2397 63.4253C93.0786 63.5181 92.8979 63.5938 92.6978 63.6523C92.5024 63.7109 92.29 63.7402 92.0605 63.7402ZM101.686 57.0752H100.162V65H101.774V58.9136C101.803 58.8403 101.835 58.7744 101.869 58.7158C101.908 58.6572 101.952 58.606 102.001 58.562C102.064 58.4985 102.14 58.4521 102.228 58.4229C102.321 58.3887 102.425 58.3716 102.543 58.3716C102.65 58.3716 102.745 58.3862 102.828 58.4155C102.916 58.4448 102.992 58.4912 103.055 58.5547C103.119 58.6182 103.165 58.7061 103.195 58.8184C103.229 58.9258 103.246 59.0576 103.246 59.2139V65H104.828V59.1187C104.828 59.0698 104.828 59.0332 104.828 59.0088C104.828 58.9795 104.828 58.9551 104.828 58.9355C104.847 58.8525 104.877 58.7793 104.916 58.7158C104.955 58.6475 105.004 58.5889 105.062 58.54C105.126 58.4863 105.199 58.4448 105.282 58.4155C105.365 58.3862 105.463 58.3716 105.575 58.3716C105.682 58.3716 105.78 58.3862 105.868 58.4155C105.961 58.4448 106.039 58.4912 106.102 58.5547C106.166 58.623 106.215 58.7134 106.249 58.8257C106.283 58.9331 106.3 59.0649 106.3 59.2212V65H107.911V59.2358C107.911 58.8208 107.867 58.4668 107.779 58.1738C107.696 57.876 107.577 57.6343 107.421 57.4487C107.264 57.2729 107.079 57.1436 106.864 57.0605C106.654 56.9727 106.422 56.9287 106.168 56.9287C105.973 56.9287 105.792 56.9531 105.626 57.002C105.465 57.0508 105.319 57.1191 105.187 57.207C105.084 57.2754 104.989 57.3584 104.901 57.4561C104.813 57.5537 104.735 57.6587 104.667 57.771C104.618 57.6489 104.559 57.5415 104.491 57.4487C104.423 57.3511 104.344 57.2681 104.257 57.1997C104.144 57.1069 104.01 57.0386 103.854 56.9946C103.697 56.9507 103.522 56.9287 103.326 56.9287C102.95 56.9287 102.628 57.019 102.36 57.1997C102.096 57.3804 101.888 57.6294 101.737 57.9468L101.686 57.0752ZM112.263 68.0469H114.014V64.2822C114.106 64.3848 114.206 64.48 114.314 64.5679C114.421 64.6558 114.534 64.7339 114.651 64.8022C114.851 64.9146 115.068 65 115.303 65.0586C115.542 65.1172 115.803 65.1465 116.086 65.1465C116.584 65.1465 117.026 65.0439 117.412 64.8389C117.798 64.6338 118.122 64.3506 118.386 63.9893C118.65 63.6328 118.848 63.208 118.979 62.7148C119.116 62.2217 119.184 61.6895 119.184 61.1182V60.9644C119.184 60.3687 119.116 59.8242 118.979 59.3311C118.843 58.833 118.645 58.4058 118.386 58.0493C118.122 57.6929 117.795 57.417 117.405 57.2217C117.019 57.0264 116.572 56.9287 116.064 56.9287C115.806 56.9287 115.561 56.958 115.332 57.0166C115.102 57.0703 114.892 57.1484 114.702 57.251C114.556 57.3291 114.419 57.4219 114.292 57.5293C114.165 57.6367 114.048 57.7563 113.94 57.8882L113.874 57.0752H112.263V68.0469ZM117.434 60.9644V61.1182C117.434 61.4697 117.4 61.8042 117.331 62.1216C117.263 62.4341 117.153 62.7124 117.002 62.9565C116.855 63.1958 116.665 63.3862 116.431 63.5278C116.201 63.6646 115.923 63.7329 115.596 63.7329C115.395 63.7329 115.212 63.7109 115.046 63.667C114.88 63.6182 114.731 63.5547 114.6 63.4766C114.473 63.3936 114.36 63.2959 114.263 63.1836C114.165 63.0713 114.082 62.9468 114.014 62.8101V59.2871C114.092 59.1406 114.182 59.0088 114.285 58.8916C114.392 58.7744 114.517 58.6768 114.658 58.5986C114.78 58.5254 114.919 58.4692 115.076 58.4302C115.232 58.3911 115.4 58.3716 115.581 58.3716C115.908 58.3716 116.189 58.4399 116.423 58.5767C116.658 58.7134 116.85 58.8989 117.002 59.1333C117.148 59.3677 117.256 59.6436 117.324 59.9609C117.397 60.2734 117.434 60.6079 117.434 60.9644ZM135.256 60.9717V61.1255C135.256 61.6919 135.329 62.2217 135.476 62.7148C135.622 63.2031 135.832 63.6279 136.106 63.9893C136.374 64.3506 136.704 64.6338 137.095 64.8389C137.485 65.0439 137.922 65.1465 138.406 65.1465C138.694 65.1465 138.962 65.1147 139.211 65.0513C139.46 64.9927 139.687 64.9072 139.892 64.7949C140.024 64.7217 140.146 64.6362 140.259 64.5386C140.376 64.4409 140.486 64.3335 140.588 64.2163V64.8975C140.588 65.2393 140.539 65.542 140.442 65.8057C140.344 66.0693 140.205 66.2891 140.024 66.4648C139.839 66.6455 139.617 66.7822 139.358 66.875C139.099 66.9678 138.808 67.0142 138.486 67.0142C138.305 67.0142 138.125 66.9946 137.944 66.9556C137.763 66.9214 137.583 66.8628 137.402 66.7798C137.221 66.6968 137.043 66.5845 136.867 66.4429C136.692 66.3062 136.521 66.1377 136.355 65.9375L135.652 66.7505C135.832 67.0093 136.047 67.2266 136.296 67.4023C136.55 67.5781 136.814 67.7173 137.087 67.8198C137.356 67.9272 137.622 68.0029 137.886 68.0469C138.149 68.0957 138.384 68.1201 138.589 68.1201C139.087 68.1201 139.541 68.0469 139.951 67.9004C140.361 67.7539 140.715 67.5391 141.013 67.2559C141.306 66.9727 141.533 66.6284 141.694 66.2231C141.86 65.8179 141.943 65.354 141.943 64.8315V57.0752H140.713L140.647 57.9395C140.554 57.8223 140.454 57.7148 140.346 57.6172C140.244 57.5195 140.134 57.4341 140.017 57.3608C139.802 57.2192 139.56 57.1118 139.292 57.0386C139.028 56.9653 138.738 56.9287 138.42 56.9287C137.927 56.9287 137.485 57.0288 137.095 57.229C136.704 57.4292 136.372 57.7075 136.098 58.064C135.825 58.4204 135.615 58.8477 135.469 59.3457C135.327 59.8389 135.256 60.3809 135.256 60.9717ZM136.611 61.1255V60.9717C136.611 60.5859 136.65 60.2197 136.728 59.873C136.811 59.5215 136.941 59.2114 137.117 58.9429C137.287 58.6792 137.507 58.4692 137.776 58.313C138.049 58.1567 138.376 58.0786 138.757 58.0786C138.982 58.0786 139.187 58.1079 139.372 58.1665C139.558 58.2202 139.726 58.2959 139.878 58.3936C140.029 58.4961 140.163 58.6157 140.281 58.7524C140.398 58.8892 140.5 59.0405 140.588 59.2065V62.8394C140.5 63.0103 140.398 63.1665 140.281 63.3081C140.163 63.4497 140.032 63.5718 139.885 63.6743C139.734 63.7769 139.563 63.8574 139.372 63.916C139.187 63.9697 138.977 63.9966 138.742 63.9966C138.367 63.9966 138.044 63.9209 137.776 63.7695C137.507 63.6133 137.287 63.4033 137.117 63.1396C136.941 62.876 136.811 62.5708 136.728 62.2241C136.65 61.8774 136.611 61.5112 136.611 61.1255ZM152.271 65H153.685V64.8828C153.597 64.6631 153.529 64.4067 153.48 64.1138C153.431 63.8159 153.407 63.5352 153.407 63.2715V59.5874C153.407 59.1431 153.326 58.7549 153.165 58.4229C153.004 58.0908 152.784 57.8125 152.506 57.5879C152.223 57.3682 151.888 57.2046 151.502 57.0972C151.117 56.9849 150.699 56.9287 150.25 56.9287C149.757 56.9287 149.315 56.9971 148.924 57.1338C148.539 57.2705 148.211 57.4487 147.943 57.6685C147.669 57.8931 147.459 58.1445 147.313 58.4229C147.171 58.7012 147.098 58.9844 147.093 59.2725H148.456C148.456 59.1064 148.495 58.9478 148.573 58.7964C148.656 58.6401 148.771 58.5059 148.917 58.3936C149.063 58.2812 149.242 58.1909 149.452 58.1226C149.667 58.0542 149.908 58.02 150.177 58.02C150.465 58.02 150.724 58.0566 150.953 58.1299C151.188 58.2031 151.385 58.3057 151.546 58.4375C151.708 58.5742 151.832 58.7378 151.92 58.9282C152.008 59.1187 152.052 59.3335 152.052 59.5728V60.1953H150.572C150.021 60.1953 149.52 60.249 149.071 60.3564C148.626 60.4639 148.246 60.625 147.928 60.8398C147.611 61.0596 147.364 61.333 147.188 61.6602C147.018 61.9873 146.932 62.3682 146.932 62.8027C146.932 63.1348 146.996 63.4448 147.123 63.7329C147.254 64.0161 147.44 64.2603 147.679 64.4653C147.914 64.6753 148.199 64.8413 148.536 64.9634C148.878 65.0854 149.259 65.1465 149.679 65.1465C149.938 65.1465 150.182 65.1196 150.411 65.0659C150.641 65.0122 150.858 64.939 151.063 64.8462C151.263 64.7534 151.446 64.646 151.612 64.5239C151.783 64.4019 151.937 64.2725 152.074 64.1357C152.088 64.3018 152.11 64.4629 152.14 64.6191C152.174 64.7705 152.218 64.8975 152.271 65ZM149.876 63.9673C149.613 63.9673 149.381 63.9331 149.181 63.8647C148.98 63.7964 148.814 63.7012 148.683 63.5791C148.551 63.4619 148.451 63.3203 148.382 63.1543C148.319 62.9883 148.287 62.8076 148.287 62.6123C148.287 62.4072 148.324 62.2241 148.397 62.063C148.475 61.9019 148.587 61.7627 148.734 61.6455C148.939 61.4795 149.215 61.3574 149.562 61.2793C149.913 61.1963 150.323 61.1548 150.792 61.1548H152.052V62.7588C151.974 62.915 151.866 63.0664 151.729 63.2129C151.593 63.3545 151.432 63.4814 151.246 63.5938C151.056 63.7061 150.846 63.7964 150.616 63.8647C150.387 63.9331 150.14 63.9673 149.876 63.9673ZM159.245 57.0752H158.029V65H159.319V58.6938C159.348 58.6157 159.384 58.5425 159.428 58.4741C159.477 58.4058 159.533 58.3447 159.597 58.291C159.68 58.2227 159.78 58.1714 159.897 58.1372C160.019 58.0981 160.161 58.0786 160.322 58.0786C160.468 58.0786 160.595 58.0981 160.703 58.1372C160.815 58.1714 160.908 58.2275 160.981 58.3057C161.059 58.3887 161.115 58.4937 161.15 58.6206C161.189 58.7476 161.208 58.894 161.208 59.0601V65H162.497V59.0674C162.497 59.0381 162.497 59.0137 162.497 58.9941C162.497 58.9697 162.497 58.9453 162.497 58.9209C162.512 58.7988 162.541 58.689 162.585 58.5913C162.629 58.4888 162.69 58.3984 162.768 58.3203C162.846 58.2471 162.944 58.1885 163.061 58.1445C163.178 58.1006 163.318 58.0786 163.479 58.0786C163.63 58.0786 163.762 58.0981 163.874 58.1372C163.991 58.1763 164.089 58.2349 164.167 58.313C164.24 58.396 164.297 58.501 164.336 58.6279C164.375 58.7549 164.394 58.9014 164.394 59.0674V65H165.683V59.082C165.683 58.7012 165.639 58.3716 165.551 58.0933C165.464 57.8101 165.337 57.5806 165.171 57.4048C165.019 57.2485 164.834 57.1313 164.614 57.0532C164.394 56.9702 164.148 56.9287 163.874 56.9287C163.674 56.9336 163.488 56.9604 163.318 57.0093C163.152 57.0581 163 57.124 162.863 57.207C162.756 57.2803 162.656 57.3657 162.563 57.4634C162.47 57.561 162.39 57.666 162.321 57.7783C162.268 57.6562 162.202 57.5464 162.124 57.4487C162.05 57.3511 161.967 57.2681 161.875 57.1997C161.748 57.1118 161.599 57.0459 161.428 57.002C161.262 56.9531 161.074 56.9287 160.864 56.9287C160.493 56.9336 160.175 57.0142 159.912 57.1704C159.653 57.3267 159.443 57.5439 159.282 57.8223L159.245 57.0752ZM173.683 65.1465C174.454 65.1465 175.101 64.9927 175.623 64.6851C176.151 64.3726 176.546 64.0161 176.81 63.6157L175.982 62.9712C175.733 63.2935 175.421 63.5522 175.045 63.7476C174.669 63.9429 174.239 64.0405 173.756 64.0405C173.39 64.0405 173.055 63.9722 172.752 63.8354C172.45 63.6987 172.191 63.5107 171.976 63.2715C171.766 63.0469 171.6 62.7881 171.478 62.4951C171.361 62.2021 171.285 61.8628 171.251 61.4771V61.4258H176.913V60.8179C176.913 60.2661 176.842 59.7534 176.7 59.2798C176.563 58.8062 176.353 58.3936 176.07 58.042C175.787 57.6953 175.431 57.4243 175.001 57.229C174.576 57.0288 174.078 56.9287 173.507 56.9287C173.053 56.9287 172.608 57.0215 172.174 57.207C171.744 57.3926 171.361 57.6587 171.024 58.0054C170.682 58.3569 170.409 58.7866 170.204 59.2944C169.998 59.7974 169.896 60.3687 169.896 61.0083V61.3159C169.896 61.8677 169.989 62.3779 170.174 62.8467C170.36 63.3154 170.619 63.7207 170.951 64.0625C171.283 64.4043 171.681 64.6704 172.144 64.8608C172.613 65.0513 173.126 65.1465 173.683 65.1465ZM173.507 58.042C173.853 58.042 174.151 58.1055 174.4 58.2324C174.654 58.3594 174.864 58.5254 175.03 58.7305C175.196 58.9355 175.326 59.1797 175.418 59.4629C175.511 59.7412 175.558 60.0024 175.558 60.2466V60.3125H171.295C171.349 59.9463 171.441 59.624 171.573 59.3457C171.71 59.0625 171.876 58.8232 172.071 58.6279C172.267 58.4375 172.486 58.2935 172.73 58.1958C172.975 58.0933 173.233 58.042 173.507 58.042Z" fill="#222326"/>
<rect x="201.502" y="52.154" width="12.6637" height="15.757" rx="6" transform="rotate(-75 201.502 52.154)" fill="#FF5F15"/>
<path d="M187.455 66.5276C183.817 61.6604 184.745 54.7386 189.479 50.9284V50.9284C189.479 50.9284 178.434 50.9528 179.127 46.1774C179.82 41.4021 192.983 50.6345 192.983 50.6345L210.571 44.1275C214.515 42.6682 219.191 44.5353 219.452 48.7329C219.724 53.1133 217.762 57.2364 207.58 53.661C189.226 47.2158 194.378 70.8991 187.455 66.5276V66.5276Z" fill="#FF5F15"/>
<path d="M194.358 50.1589C193.165 50.0984 192.121 49.3354 191.701 48.2166L186.848 35.2805C186.495 34.3398 186.636 33.2849 187.224 32.4704L188.207 31.1096C189.417 29.4332 191.921 29.4552 193.102 31.1526L203.27 45.7689C204.693 47.8153 203.145 50.6045 200.655 50.4783L194.358 50.1589Z" fill="#FF5F15"/>
<rect x="186.282" y="58.3882" width="3.53338" height="3.53338" transform="rotate(-36.3716 186.282 58.3882)" fill="#FF5F15"/>
<path d="M222.322 16.376C218.593 15.0979 214.406 17.0015 212.91 20.6498C212.406 21.8957 212.191 23.1154 212.116 25.1706C212.033 27.9559 212.185 27.5027 209.844 31.7247L207.842 35.334L204.893 33.6985C202.893 32.5896 201.875 32.0686 201.716 32.0575C201.437 32.0455 200.137 32.3891 200.086 32.4814C200.067 32.515 205.157 35.3816 211.391 38.8389C217.634 42.301 222.752 45.0958 222.771 45.0622C222.822 44.9699 222.425 43.6851 222.267 43.4548C222.174 43.3261 221.192 42.7381 219.193 41.6291L216.244 39.9936L218.236 36.4011C219.861 33.4717 220.3 32.7386 220.587 32.4588C220.78 32.2694 221.65 31.6323 222.526 31.0427C224.346 29.8019 225.222 29.0146 226.017 27.9187C228.195 24.9014 227.81 20.7036 225.113 18.0777C224.622 17.5967 222.996 16.607 222.322 16.376Z" fill="#222326"/>
<path d="M193.96 30.9495C193.647 33.7721 193.457 36.0157 193.501 36.1938C193.643 36.8101 192.912 36.3833 208.103 44.8078C222.05 52.5426 222.335 52.7011 222.689 52.6776C222.887 52.6776 223.152 52.6159 223.279 52.5441C223.407 52.4723 224.393 51.7241 225.478 50.8771C226.563 50.03 227.483 49.322 227.532 49.294C227.567 49.2697 220.036 45.0603 210.794 39.9348L193.991 30.6156L193.96 30.9495Z" fill="#222326"/>
</svg>
