<svg width="216" height="62" viewBox="0 0 216 62" fill="none" xmlns="http://www.w3.org/2000/svg">
<path d="M7.91039 54.1973C7.91039 54.3665 7.87783 54.526 7.81273 54.6758C7.74762 54.8255 7.65322 54.9622 7.52953 55.0859C7.3277 55.2878 7.04775 55.4473 6.68968 55.5645C6.33161 55.6751 5.91169 55.7305 5.42992 55.7305C5.12393 55.7305 4.81468 55.6979 4.50218 55.6328C4.18968 55.5677 3.90648 55.457 3.65257 55.3008C3.39216 55.1445 3.17406 54.9395 2.99828 54.6855C2.829 54.4316 2.73135 54.1191 2.70531 53.748H0.898666C0.898666 54.1973 0.999578 54.6302 1.2014 55.0469C1.40973 55.4635 1.70921 55.8281 2.09984 56.1406C2.48395 56.4596 2.95596 56.7168 3.51585 56.9121C4.07575 57.1009 4.71377 57.1953 5.42992 57.1953C6.05492 57.1953 6.63109 57.1204 7.15843 56.9707C7.68578 56.821 8.13825 56.6094 8.51585 56.3359C8.89346 56.0625 9.18643 55.7337 9.39476 55.3496C9.6096 54.9655 9.71703 54.5391 9.71703 54.0703C9.71703 53.6341 9.62262 53.25 9.43382 52.918C9.25153 52.5859 8.9846 52.293 8.63304 52.0391C8.28148 51.7917 7.84854 51.5801 7.33421 51.4043C6.81989 51.222 6.23721 51.0625 5.58617 50.9258C5.09137 50.8281 4.68122 50.7272 4.3557 50.623C4.03669 50.5189 3.78278 50.4017 3.59398 50.2715C3.39867 50.1413 3.26195 49.9948 3.18382 49.832C3.1057 49.6693 3.06664 49.4837 3.06664 49.2754C3.06664 49.0736 3.11546 48.8783 3.21312 48.6895C3.31078 48.5007 3.45726 48.3346 3.65257 48.1914C3.84137 48.0482 4.079 47.9342 4.36546 47.8496C4.65843 47.765 4.99697 47.7227 5.38109 47.7227C5.75218 47.7227 6.08421 47.7747 6.37718 47.8789C6.67666 47.9831 6.93057 48.1198 7.1389 48.2891C7.34723 48.4583 7.50999 48.6536 7.62718 48.875C7.74437 49.0898 7.80296 49.3112 7.80296 49.5391H9.6096C9.6096 49.0768 9.50869 48.6471 9.30687 48.25C9.11156 47.8464 8.83161 47.4948 8.46703 47.1953C8.10244 46.8958 7.65973 46.6615 7.1389 46.4922C6.61807 46.3229 6.03213 46.2383 5.38109 46.2383C4.77562 46.2383 4.21898 46.3197 3.71117 46.4824C3.20986 46.6452 2.77692 46.8665 2.41234 47.1465C2.04775 47.4264 1.76455 47.7552 1.56273 48.1328C1.36091 48.5039 1.25999 48.9043 1.25999 49.334C1.25999 49.7702 1.35765 50.1543 1.55296 50.4863C1.74828 50.8118 2.02497 51.0951 2.38304 51.3359C2.7346 51.5833 3.15778 51.7949 3.65257 51.9707C4.15387 52.1465 4.70726 52.2962 5.31273 52.4199C5.80752 52.5176 6.22093 52.6283 6.55296 52.752C6.88499 52.8691 7.15192 52.9993 7.35374 53.1426C7.55557 53.2858 7.6988 53.4453 7.78343 53.6211C7.86807 53.7904 7.91039 53.9824 7.91039 54.1973Z" fill="#222326"/>
<path d="M20.4562 57H21.882L23.5129 50.5254L23.7766 48.8848L24.05 50.5254L25.7004 57H27.1262L29.3723 46.4336H27.7707L26.5988 53.1719L26.3352 54.832L26.0519 53.1719L24.3723 46.4336H23.2102L21.5207 53.1719L21.257 54.6855L21.0422 53.1719L19.8117 46.4336H18.2102L20.4562 57Z" fill="#222326"/>
<path d="M44.9357 57H46.8205V56.8438C46.7033 56.5508 46.6121 56.209 46.547 55.8184C46.4819 55.4212 46.4494 55.0469 46.4494 54.6953V49.7832C46.4494 49.1908 46.3419 48.6732 46.1271 48.2305C45.9123 47.7878 45.6193 47.4167 45.2482 47.1172C44.8706 46.8242 44.4246 46.6061 43.9103 46.4629C43.396 46.3132 42.8393 46.2383 42.2404 46.2383C41.5828 46.2383 40.9936 46.3294 40.4728 46.5117C39.9585 46.694 39.5223 46.9316 39.1642 47.2246C38.7996 47.5241 38.5197 47.8594 38.3244 48.2305C38.1356 48.6016 38.0379 48.9792 38.0314 49.3633H39.8478C39.8478 49.1419 39.8999 48.9303 40.0041 48.7285C40.1147 48.5202 40.2677 48.3411 40.463 48.1914C40.6584 48.0417 40.896 47.9212 41.1759 47.8301C41.4624 47.7389 41.7847 47.6934 42.1427 47.6934C42.5268 47.6934 42.8719 47.7422 43.1779 47.8398C43.4904 47.9375 43.7541 48.0742 43.9689 48.25C44.1837 48.4323 44.3498 48.6504 44.4669 48.9043C44.5841 49.1582 44.6427 49.4447 44.6427 49.7637V50.5938H42.6701C41.9344 50.5938 41.2671 50.6654 40.6681 50.8086C40.0757 50.9518 39.5679 51.1667 39.1447 51.4531C38.7215 51.7461 38.3927 52.1107 38.1584 52.5469C37.9305 52.9831 37.8166 53.4909 37.8166 54.0703C37.8166 54.513 37.9012 54.9264 38.0705 55.3105C38.2462 55.6882 38.4936 56.0137 38.8127 56.2871C39.1252 56.5671 39.506 56.7884 39.9552 56.9512C40.411 57.1139 40.9188 57.1953 41.4787 57.1953C41.8237 57.1953 42.1492 57.1595 42.4552 57.0879C42.7612 57.0163 43.0509 56.9186 43.3244 56.7949C43.5913 56.6712 43.8354 56.528 44.0568 56.3652C44.2847 56.2025 44.4897 56.0299 44.672 55.8477C44.6916 56.069 44.7209 56.2839 44.7599 56.4922C44.8055 56.694 44.8641 56.8633 44.9357 57ZM41.7423 55.623C41.3908 55.623 41.0815 55.5775 40.8146 55.4863C40.5477 55.3952 40.3263 55.2682 40.1505 55.1055C39.9748 54.9492 39.8413 54.7604 39.7502 54.5391C39.6655 54.3177 39.6232 54.0768 39.6232 53.8164C39.6232 53.543 39.672 53.2988 39.7697 53.084C39.8739 52.8691 40.0236 52.6836 40.2189 52.5273C40.4923 52.306 40.8602 52.1432 41.3224 52.0391C41.7912 51.9284 42.338 51.873 42.963 51.873H44.6427V54.0117C44.5386 54.2201 44.3953 54.4219 44.213 54.6172C44.0308 54.806 43.8159 54.9753 43.5685 55.125C43.3146 55.2747 43.0347 55.3952 42.7287 55.4863C42.4227 55.5775 42.0939 55.623 41.7423 55.623Z" fill="#222326"/>
<path d="M56.212 51.6289V51.834C56.212 52.5892 56.3097 53.2956 56.505 53.9531C56.7003 54.6042 56.9803 55.1706 57.3448 55.6523C57.7029 56.1341 58.1424 56.5117 58.6632 56.7852C59.184 57.0586 59.7667 57.1953 60.4112 57.1953C60.7954 57.1953 61.1534 57.153 61.4855 57.0684C61.8175 56.9902 62.1202 56.8763 62.3937 56.7266C62.5694 56.6289 62.7322 56.515 62.8819 56.3848C63.0382 56.2546 63.1847 56.1113 63.3214 55.9551V56.8633C63.3214 57.319 63.2563 57.7227 63.1261 58.0742C62.9959 58.4258 62.8103 58.7188 62.5694 58.9531C62.3221 59.194 62.0258 59.3763 61.6808 59.5C61.3357 59.6237 60.9484 59.6855 60.5187 59.6855C60.2778 59.6855 60.0369 59.6595 59.796 59.6074C59.5551 59.5618 59.3142 59.4837 59.0734 59.373C58.8325 59.2624 58.5948 59.1126 58.3605 58.9238C58.1261 58.7415 57.8982 58.5169 57.6769 58.25L56.7394 59.334C56.9803 59.679 57.2667 59.9688 57.5987 60.2031C57.9373 60.4375 58.2888 60.623 58.6534 60.7598C59.0115 60.903 59.3663 61.0039 59.7179 61.0625C60.0694 61.1276 60.3819 61.1602 60.6554 61.1602C61.3194 61.1602 61.9249 61.0625 62.4718 60.8672C63.0187 60.6719 63.4907 60.3854 63.8878 60.0078C64.2784 59.6302 64.5812 59.1712 64.796 58.6309C65.0174 58.0905 65.128 57.472 65.128 56.7754V46.4336H63.4874L63.3995 47.5859C63.2758 47.4297 63.1424 47.2865 62.9991 47.1562C62.8624 47.026 62.7159 46.9121 62.5597 46.8145C62.2732 46.6257 61.951 46.4824 61.5929 46.3848C61.2413 46.2871 60.854 46.2383 60.4308 46.2383C59.7732 46.2383 59.184 46.3717 58.6632 46.6387C58.1424 46.9056 57.6997 47.2767 57.3351 47.752C56.9705 48.2272 56.6905 48.7969 56.4952 49.4609C56.3064 50.1185 56.212 50.8411 56.212 51.6289ZM58.0187 51.834V51.6289C58.0187 51.1146 58.0707 50.6263 58.1749 50.1641C58.2856 49.6953 58.4581 49.2819 58.6925 48.9238C58.9204 48.5723 59.2133 48.2923 59.5714 48.084C59.936 47.8757 60.3722 47.7715 60.88 47.7715C61.1795 47.7715 61.4529 47.8105 61.7003 47.8887C61.9477 47.9603 62.1723 48.0612 62.3741 48.1914C62.576 48.3281 62.755 48.4876 62.9112 48.6699C63.0675 48.8522 63.2042 49.054 63.3214 49.2754V54.1191C63.2042 54.347 63.0675 54.5553 62.9112 54.7441C62.755 54.9329 62.5792 55.0957 62.3839 55.2324C62.1821 55.3691 61.9542 55.4766 61.7003 55.5547C61.4529 55.6263 61.173 55.6621 60.8605 55.6621C60.3592 55.6621 59.9295 55.5612 59.5714 55.3594C59.2133 55.151 58.9204 54.8711 58.6925 54.5195C58.4581 54.168 58.2856 53.7611 58.1749 53.2988C58.0707 52.8366 58.0187 52.3483 58.0187 51.834Z" fill="#222326"/>
<path d="M100.669 54.1973C100.669 54.3665 100.636 54.526 100.571 54.6758C100.506 54.8255 100.412 54.9622 100.288 55.0859C100.086 55.2878 99.8063 55.4473 99.4483 55.5645C99.0902 55.6751 98.6703 55.7305 98.1885 55.7305C97.8825 55.7305 97.5733 55.6979 97.2608 55.6328C96.9483 55.5677 96.6651 55.457 96.4112 55.3008C96.1507 55.1445 95.9326 54.9395 95.7569 54.6855C95.5876 54.4316 95.4899 54.1191 95.4639 53.748H93.6573C93.6573 54.1973 93.7582 54.6302 93.96 55.0469C94.1683 55.4635 94.4678 55.8281 94.8584 56.1406C95.2425 56.4596 95.7145 56.7168 96.2744 56.9121C96.8343 57.1009 97.4724 57.1953 98.1885 57.1953C98.8135 57.1953 99.3897 57.1204 99.917 56.9707C100.444 56.821 100.897 56.6094 101.274 56.3359C101.652 56.0625 101.945 55.7337 102.153 55.3496C102.368 54.9655 102.476 54.5391 102.476 54.0703C102.476 53.6341 102.381 53.25 102.192 52.918C102.01 52.5859 101.743 52.293 101.392 52.0391C101.04 51.7917 100.607 51.5801 100.093 51.4043C99.5785 51.222 98.9958 51.0625 98.3448 50.9258C97.85 50.8281 97.4398 50.7272 97.1143 50.623C96.7953 50.5189 96.5414 50.4017 96.3526 50.2715C96.1573 50.1413 96.0205 49.9948 95.9424 49.832C95.8643 49.6693 95.8252 49.4837 95.8252 49.2754C95.8252 49.0736 95.8741 48.8783 95.9717 48.6895C96.0694 48.5007 96.2159 48.3346 96.4112 48.1914C96.6 48.0482 96.8376 47.9342 97.1241 47.8496C97.417 47.765 97.7556 47.7227 98.1397 47.7227C98.5108 47.7227 98.8428 47.7747 99.1358 47.8789C99.4353 47.9831 99.6892 48.1198 99.8975 48.2891C100.106 48.4583 100.269 48.6536 100.386 48.875C100.503 49.0898 100.562 49.3112 100.562 49.5391H102.368C102.368 49.0768 102.267 48.6471 102.065 48.25C101.87 47.8464 101.59 47.4948 101.226 47.1953C100.861 46.8958 100.418 46.6615 99.8975 46.4922C99.3767 46.3229 98.7907 46.2383 98.1397 46.2383C97.5342 46.2383 96.9776 46.3197 96.4698 46.4824C95.9685 46.6452 95.5355 46.8665 95.1709 47.1465C94.8063 47.4264 94.5231 47.7552 94.3213 48.1328C94.1195 48.5039 94.0186 48.9043 94.0186 49.334C94.0186 49.7702 94.1162 50.1543 94.3116 50.4863C94.5069 50.8118 94.7836 51.0951 95.1416 51.3359C95.4932 51.5833 95.9164 51.7949 96.4112 51.9707C96.9125 52.1465 97.4659 52.2962 98.0713 52.4199C98.5661 52.5176 98.9795 52.6283 99.3116 52.752C99.6436 52.8691 99.9105 52.9993 100.112 53.1426C100.314 53.2858 100.457 53.4453 100.542 53.6211C100.627 53.7904 100.669 53.9824 100.669 54.1973Z" fill="#222326"/>
<path d="M116.477 43.875H114.66V46.4336H111.887V47.8301H114.66V53.5723C114.66 54.2233 114.745 54.7799 114.914 55.2422C115.09 55.6979 115.327 56.069 115.627 56.3555C115.926 56.6484 116.278 56.8633 116.682 57C117.092 57.1302 117.531 57.1953 118 57.1953C118.28 57.1953 118.56 57.1823 118.84 57.1562C119.126 57.1302 119.396 57.0911 119.65 57.0391C119.904 56.9935 120.139 56.9382 120.354 56.873C120.568 56.8014 120.751 56.7201 120.9 56.6289L120.646 55.3496C120.536 55.3757 120.393 55.4082 120.217 55.4473C120.048 55.4798 119.865 55.5124 119.67 55.5449C119.468 55.5775 119.263 55.6068 119.055 55.6328C118.846 55.6523 118.645 55.6621 118.449 55.6621C118.182 55.6621 117.928 55.6296 117.687 55.5645C117.453 55.4993 117.245 55.3854 117.062 55.2227C116.88 55.0664 116.737 54.8548 116.633 54.5879C116.529 54.321 116.477 53.9824 116.477 53.5723V47.8301H120.5V46.4336H116.477V43.875Z" fill="#222326"/>
<path d="M137.694 57H139.579V56.8438C139.462 56.5508 139.371 56.209 139.306 55.8184C139.241 55.4212 139.208 55.0469 139.208 54.6953V49.7832C139.208 49.1908 139.101 48.6732 138.886 48.2305C138.671 47.7878 138.378 47.4167 138.007 47.1172C137.629 46.8242 137.183 46.6061 136.669 46.4629C136.155 46.3132 135.598 46.2383 134.999 46.2383C134.341 46.2383 133.752 46.3294 133.231 46.5117C132.717 46.694 132.281 46.9316 131.923 47.2246C131.558 47.5241 131.278 47.8594 131.083 48.2305C130.894 48.6016 130.797 48.9792 130.79 49.3633H132.606C132.606 49.1419 132.658 48.9303 132.763 48.7285C132.873 48.5202 133.026 48.3411 133.222 48.1914C133.417 48.0417 133.655 47.9212 133.935 47.8301C134.221 47.7389 134.543 47.6934 134.901 47.6934C135.285 47.6934 135.631 47.7422 135.936 47.8398C136.249 47.9375 136.513 48.0742 136.728 48.25C136.942 48.4323 137.108 48.6504 137.226 48.9043C137.343 49.1582 137.401 49.4447 137.401 49.7637V50.5938H135.429C134.693 50.5938 134.026 50.6654 133.427 50.8086C132.834 50.9518 132.326 51.1667 131.903 51.4531C131.48 51.7461 131.151 52.1107 130.917 52.5469C130.689 52.9831 130.575 53.4909 130.575 54.0703C130.575 54.513 130.66 54.9264 130.829 55.3105C131.005 55.6882 131.252 56.0137 131.571 56.2871C131.884 56.5671 132.265 56.7884 132.714 56.9512C133.17 57.1139 133.677 57.1953 134.237 57.1953C134.582 57.1953 134.908 57.1595 135.214 57.0879C135.52 57.0163 135.81 56.9186 136.083 56.7949C136.35 56.6712 136.594 56.528 136.815 56.3652C137.043 56.2025 137.248 56.0299 137.431 55.8477C137.45 56.069 137.479 56.2839 137.519 56.4922C137.564 56.694 137.623 56.8633 137.694 57ZM134.501 55.623C134.149 55.623 133.84 55.5775 133.573 55.4863C133.306 55.3952 133.085 55.2682 132.909 55.1055C132.733 54.9492 132.6 54.7604 132.509 54.5391C132.424 54.3177 132.382 54.0768 132.382 53.8164C132.382 53.543 132.431 53.2988 132.528 53.084C132.632 52.8691 132.782 52.6836 132.978 52.5273C133.251 52.306 133.619 52.1432 134.081 52.0391C134.55 51.9284 135.097 51.873 135.722 51.873H137.401V54.0117C137.297 54.2201 137.154 54.4219 136.972 54.6172C136.789 54.806 136.575 54.9753 136.327 55.125C136.073 55.2747 135.793 55.3952 135.487 55.4863C135.181 55.5775 134.853 55.623 134.501 55.623Z" fill="#222326"/>
<path d="M150.133 46.4336H148.512V57H150.23V48.5918C150.269 48.4876 150.318 48.39 150.377 48.2988C150.442 48.2077 150.517 48.1263 150.602 48.0547C150.712 47.9635 150.846 47.8952 151.002 47.8496C151.165 47.7975 151.353 47.7715 151.568 47.7715C151.764 47.7715 151.933 47.7975 152.076 47.8496C152.226 47.8952 152.35 47.9701 152.447 48.0742C152.551 48.1849 152.626 48.3249 152.672 48.4941C152.724 48.6634 152.75 48.8587 152.75 49.0801V57H154.469V49.0898C154.469 49.0508 154.469 49.0182 154.469 48.9922C154.469 48.9596 154.469 48.9271 154.469 48.8945C154.488 48.7318 154.527 48.5853 154.586 48.4551C154.644 48.3184 154.726 48.1979 154.83 48.0938C154.934 47.9961 155.064 47.918 155.221 47.8594C155.377 47.8008 155.562 47.7715 155.777 47.7715C155.979 47.7715 156.155 47.7975 156.305 47.8496C156.461 47.9017 156.591 47.9798 156.695 48.084C156.793 48.1947 156.868 48.3346 156.92 48.5039C156.972 48.6732 156.998 48.8685 156.998 49.0898V57H158.717V49.1094C158.717 48.6016 158.658 48.1621 158.541 47.791C158.424 47.4134 158.254 47.1074 158.033 46.873C157.831 46.6647 157.584 46.5085 157.291 46.4043C156.998 46.2936 156.669 46.2383 156.305 46.2383C156.038 46.2448 155.79 46.2806 155.562 46.3457C155.341 46.4108 155.139 46.4987 154.957 46.6094C154.814 46.707 154.68 46.821 154.557 46.9512C154.433 47.0814 154.325 47.2214 154.234 47.3711C154.163 47.2083 154.075 47.0618 153.971 46.9316C153.873 46.8014 153.762 46.6908 153.639 46.5996C153.469 46.4824 153.271 46.3945 153.043 46.3359C152.822 46.2708 152.571 46.2383 152.291 46.2383C151.796 46.2448 151.373 46.3522 151.021 46.5605C150.676 46.7689 150.396 47.0586 150.182 47.4297L150.133 46.4336Z" fill="#222326"/>
<path d="M167.845 61.0625H169.651V55.9844C169.781 56.1276 169.921 56.2611 170.071 56.3848C170.221 56.502 170.38 56.6094 170.55 56.707C170.83 56.8633 171.142 56.9837 171.487 57.0684C171.839 57.153 172.216 57.1953 172.62 57.1953C173.284 57.1953 173.873 57.0586 174.388 56.7852C174.908 56.5117 175.345 56.1341 175.696 55.6523C176.048 55.1706 176.315 54.6042 176.497 53.9531C176.679 53.2956 176.77 52.5892 176.77 51.834V51.6289C176.77 50.8411 176.679 50.1185 176.497 49.4609C176.315 48.7969 176.048 48.2272 175.696 47.752C175.345 47.2767 174.908 46.9056 174.388 46.6387C173.867 46.3717 173.268 46.2383 172.591 46.2383C172.207 46.2383 171.845 46.2806 171.507 46.3652C171.175 46.4434 170.872 46.5605 170.599 46.7168C170.403 46.821 170.221 46.9479 170.052 47.0977C169.882 47.2409 169.726 47.4036 169.583 47.5859L169.495 46.4336H167.845V61.0625ZM174.964 51.6289V51.834C174.964 52.3483 174.905 52.8398 174.788 53.3086C174.677 53.7773 174.505 54.1908 174.27 54.5488C174.036 54.9069 173.737 55.1934 173.372 55.4082C173.007 55.6165 172.574 55.7207 172.073 55.7207C171.761 55.7207 171.474 55.6816 171.214 55.6035C170.96 55.5254 170.729 55.418 170.52 55.2812C170.338 55.1641 170.175 55.0208 170.032 54.8516C169.889 54.6823 169.762 54.5 169.651 54.3047V49.2168C169.775 48.9954 169.918 48.7936 170.081 48.6113C170.244 48.429 170.429 48.276 170.638 48.1523C170.826 48.0286 171.038 47.9342 171.272 47.8691C171.513 47.804 171.774 47.7715 172.054 47.7715C172.561 47.7715 172.998 47.8757 173.362 48.084C173.727 48.2923 174.03 48.5723 174.27 48.9238C174.505 49.2819 174.677 49.6953 174.788 50.1641C174.905 50.6263 174.964 51.1146 174.964 51.6289Z" fill="#222326"/>
<path d="M191.074 57.1953C192.103 57.1953 192.965 56.9902 193.662 56.5801C194.365 56.1634 194.892 55.6882 195.244 55.1543L194.14 54.2949C193.808 54.7246 193.392 55.0697 192.89 55.3301C192.389 55.5905 191.816 55.7207 191.172 55.7207C190.683 55.7207 190.237 55.6296 189.834 55.4473C189.43 55.265 189.085 55.0143 188.799 54.6953C188.519 54.3958 188.297 54.0508 188.135 53.6602C187.978 53.2695 187.877 52.8171 187.832 52.3027V52.2344H195.381V51.4238C195.381 50.6882 195.286 50.0046 195.098 49.373C194.915 48.7415 194.635 48.1914 194.258 47.7227C193.88 47.2604 193.405 46.8991 192.832 46.6387C192.265 46.3717 191.601 46.2383 190.84 46.2383C190.234 46.2383 189.642 46.362 189.062 46.6094C188.489 46.8568 187.978 47.2116 187.529 47.6738C187.073 48.1426 186.709 48.7155 186.435 49.3926C186.162 50.0632 186.025 50.8249 186.025 51.6777V52.0879C186.025 52.8236 186.149 53.5039 186.396 54.1289C186.644 54.7539 186.989 55.2943 187.431 55.75C187.874 56.2057 188.405 56.5605 189.023 56.8145C189.648 57.0684 190.332 57.1953 191.074 57.1953ZM190.84 47.7227C191.302 47.7227 191.699 47.8073 192.031 47.9766C192.37 48.1458 192.65 48.3672 192.871 48.6406C193.092 48.9141 193.265 49.2396 193.389 49.6172C193.512 49.9883 193.574 50.3366 193.574 50.6621V50.75H187.89C187.962 50.2617 188.086 49.832 188.262 49.4609C188.444 49.0833 188.665 48.7643 188.926 48.5039C189.186 48.25 189.479 48.0579 189.805 47.9277C190.13 47.791 190.475 47.7227 190.84 47.7227Z" fill="#222326"/>
<path d="M211.882 46.2383C211.113 46.2383 210.427 46.4076 209.821 46.7461C209.222 47.0781 208.708 47.5339 208.278 48.1133L208.268 47.8496L208.19 46.4336H206.471V57H208.288V50.2227C208.405 49.8971 208.552 49.6042 208.727 49.3438C208.91 49.0768 209.121 48.8522 209.362 48.6699C209.629 48.4616 209.942 48.3053 210.3 48.2012C210.658 48.0905 211.058 48.0352 211.501 48.0352C211.846 48.0352 212.175 48.0547 212.487 48.0938C212.806 48.1263 213.141 48.1816 213.493 48.2598L213.737 46.4922C213.555 46.4141 213.281 46.3522 212.917 46.3066C212.559 46.2611 212.214 46.2383 211.882 46.2383Z" fill="#222326"/>
<path d="M187.1 20.387L200.138 25.4869L195.038 38.5249L182 33.4251L187.1 20.387Z" fill="#FF5F15"/>
<path d="M196.613 1.09262L210.57 0L211.663 13.9573L197.706 15.0499L196.613 1.09262Z" fill="#FF5F15"/>
<path d="M208.069 22.0059L215.094 21.456L215.644 28.4808L208.619 29.0307L208.069 22.0059Z" fill="#FF5F15"/>
<path d="M184.538 8.45599L186.082 10.9255L183.613 12.469L182.069 9.99954L184.538 8.45599Z" fill="#FF5F15"/>
<path d="M16.8124 36H22.5311V35.6016C22.2186 34.9453 21.9764 34.1641 21.8046 33.2578C21.6483 32.3359 21.5702 31.3047 21.5702 30.1641V18.8906C21.5702 17.4531 21.3046 16.1875 20.7733 15.0938C20.2421 13.9844 19.5077 13.0703 18.5702 12.3516C17.6327 11.6328 16.5155 11.0938 15.2186 10.7344C13.9374 10.3594 12.5546 10.1719 11.0702 10.1719C9.41394 10.1719 7.93738 10.3906 6.6405 10.8281C5.35925 11.25 4.28113 11.8281 3.40613 12.5625C2.49988 13.2812 1.81238 14.1094 1.34363 15.0469C0.874878 15.9844 0.63269 16.9609 0.617065 17.9766H6.24207C6.24207 17.4922 6.328 17.0391 6.49988 16.6172C6.68738 16.1797 6.96863 15.8125 7.34363 15.5156C7.71863 15.1875 8.18738 14.9297 8.74988 14.7422C9.328 14.5547 9.99988 14.4609 10.7655 14.4609C11.6093 14.4609 12.3514 14.5703 12.9921 14.7891C13.6483 14.9922 14.203 15.2891 14.6561 15.6797C15.078 16.0703 15.3983 16.5312 15.6171 17.0625C15.8514 17.5938 15.9686 18.1875 15.9686 18.8438V20.5547H11.8905C10.0624 20.5547 8.42175 20.7266 6.96863 21.0703C5.53113 21.4141 4.32019 21.9141 3.33582 22.5703C2.27332 23.2734 1.46082 24.1641 0.898315 25.2422C0.35144 26.3047 0.0780029 27.5312 0.0780029 28.9219C0.0780029 30 0.28894 31.0078 0.710815 31.9453C1.14832 32.8672 1.75769 33.6562 2.53894 34.3125C3.30457 34.9844 4.22644 35.5156 5.30457 35.9062C6.39832 36.2812 7.60144 36.4688 8.91394 36.4688C9.72644 36.4688 10.4843 36.3906 11.1874 36.2344C11.8905 36.0781 12.5468 35.8594 13.1561 35.5781C13.7655 35.3125 14.3124 35 14.7968 34.6406C15.2968 34.2656 15.7421 33.875 16.1327 33.4688C16.2108 33.9531 16.2968 34.4219 16.3905 34.875C16.4999 35.3125 16.6405 35.6875 16.8124 36ZM9.99207 31.9688C9.27332 31.9688 8.64832 31.8828 8.11707 31.7109C7.58582 31.5234 7.1405 31.2734 6.78113 30.9609C6.42175 30.6484 6.14832 30.2734 5.96082 29.8359C5.77332 29.3828 5.67957 28.8984 5.67957 28.3828C5.67957 27.7578 5.78894 27.1953 6.00769 26.6953C6.24207 26.1953 6.59363 25.7656 7.06238 25.4062C7.59363 24.9844 8.30457 24.6641 9.19519 24.4453C10.0858 24.2109 11.1405 24.0938 12.3593 24.0938H15.9686V28.7812C15.7655 29.1875 15.4764 29.5781 15.1014 29.9531C14.7264 30.3281 14.2811 30.6641 13.7655 30.9609C13.2499 31.2578 12.6718 31.5 12.0311 31.6875C11.4061 31.875 10.7264 31.9688 9.99207 31.9688Z" fill="#222326"/>
<path d="M43.3764 10.1719C41.6264 10.1719 40.0249 10.5781 38.5718 11.3906C37.1343 12.2031 35.8999 13.3203 34.8686 14.7422L34.8452 14.1562L34.6108 10.6406H29.3608V36H34.9624V20.3438C35.2593 19.5938 35.6264 18.9297 36.0639 18.3516C36.5014 17.7734 37.0327 17.2969 37.6577 16.9219C38.2358 16.5312 38.8999 16.2422 39.6499 16.0547C40.3999 15.8672 41.2436 15.7734 42.1811 15.7734C43.0093 15.7734 43.8374 15.8203 44.6655 15.9141C45.5093 16.0078 46.3608 16.1484 47.2202 16.3359L48.0171 10.8047C47.5327 10.6328 46.8608 10.4844 46.0014 10.3594C45.1577 10.2344 44.2827 10.1719 43.3764 10.1719Z" fill="#222326"/>
<path d="M53.1827 36H57.9405L61.1514 21.6094L61.7139 18.4688L62.2999 21.6094L65.5811 36H70.3389L75.2374 10.6406H70.1514L67.878 26.1094L67.4327 29.2031L66.8936 26.1328L63.5889 10.6406H59.9093L56.6046 26.1797L56.0889 29.1094L55.6905 26.1797L53.3468 10.6406H48.2843L53.1827 36Z" fill="#222326"/>
<path d="M88.1374 36.4688C90.6061 36.4688 92.7077 35.9844 94.4421 35.0156C96.1921 34.0469 97.4889 32.9531 98.3327 31.7344L95.3327 28.8281C94.5514 29.8281 93.5592 30.6016 92.3561 31.1484C91.153 31.6797 89.8561 31.9453 88.4655 31.9453C87.4499 31.9453 86.5124 31.7734 85.653 31.4297C84.8092 31.0859 84.0749 30.6016 83.4499 29.9766C82.8249 29.3828 82.3327 28.7109 81.9733 27.9609C81.6139 27.2109 81.3483 26.2812 81.1764 25.1719V25.0547H98.7546V22.6406C98.7546 20.8281 98.5124 19.1562 98.028 17.625C97.5436 16.0938 96.8249 14.7734 95.8717 13.6641C94.9186 12.5703 93.7389 11.7188 92.3327 11.1094C90.9264 10.4844 89.3092 10.1719 87.4811 10.1719C85.8405 10.1719 84.2936 10.4844 82.8405 11.1094C81.403 11.7188 80.1374 12.5938 79.0436 13.7344C77.9499 14.875 77.0905 16.25 76.4655 17.8594C75.8405 19.4688 75.528 21.2656 75.528 23.25V24.2109C75.528 25.9453 75.8249 27.5625 76.4186 29.0625C77.028 30.5469 77.8874 31.8359 78.9967 32.9297C80.1061 34.0391 81.4342 34.9062 82.9811 35.5312C84.5436 36.1562 86.2624 36.4688 88.1374 36.4688ZM87.4577 14.7188C88.3952 14.7188 89.2155 14.8828 89.9186 15.2109C90.6374 15.5234 91.2311 15.9453 91.6999 16.4766C92.1842 17.0234 92.5592 17.6641 92.8249 18.3984C93.0905 19.1172 93.2233 19.8438 93.2233 20.5781V20.9531H81.2936C81.4655 19.9844 81.7311 19.1172 82.0905 18.3516C82.4499 17.5859 82.8952 16.9297 83.4264 16.3828C83.9577 15.8516 84.5592 15.4453 85.2311 15.1641C85.9186 14.8672 86.6608 14.7188 87.4577 14.7188Z" fill="#222326"/>
<path d="M117.725 36H123.444V35.6016C123.131 34.9453 122.889 34.1641 122.717 33.2578C122.561 32.3359 122.483 31.3047 122.483 30.1641V18.8906C122.483 17.4531 122.217 16.1875 121.686 15.0938C121.155 13.9844 120.42 13.0703 119.483 12.3516C118.545 11.6328 117.428 11.0938 116.131 10.7344C114.85 10.3594 113.467 10.1719 111.983 10.1719C110.326 10.1719 108.85 10.3906 107.553 10.8281C106.272 11.25 105.194 11.8281 104.319 12.5625C103.412 13.2812 102.725 14.1094 102.256 15.0469C101.787 15.9844 101.545 16.9609 101.53 17.9766H107.155C107.155 17.4922 107.241 17.0391 107.412 16.6172C107.6 16.1797 107.881 15.8125 108.256 15.5156C108.631 15.1875 109.1 14.9297 109.662 14.7422C110.241 14.5547 110.912 14.4609 111.678 14.4609C112.522 14.4609 113.264 14.5703 113.905 14.7891C114.561 14.9922 115.116 15.2891 115.569 15.6797C115.991 16.0703 116.311 16.5312 116.53 17.0625C116.764 17.5938 116.881 18.1875 116.881 18.8438V20.5547H112.803C110.975 20.5547 109.334 20.7266 107.881 21.0703C106.444 21.4141 105.233 21.9141 104.248 22.5703C103.186 23.2734 102.373 24.1641 101.811 25.2422C101.264 26.3047 100.991 27.5312 100.991 28.9219C100.991 30 101.201 31.0078 101.623 31.9453C102.061 32.8672 102.67 33.6562 103.451 34.3125C104.217 34.9844 105.139 35.5156 106.217 35.9062C107.311 36.2812 108.514 36.4688 109.826 36.4688C110.639 36.4688 111.397 36.3906 112.1 36.2344C112.803 36.0781 113.459 35.8594 114.069 35.5781C114.678 35.3125 115.225 35 115.709 34.6406C116.209 34.2656 116.655 33.875 117.045 33.4688C117.123 33.9531 117.209 34.4219 117.303 34.875C117.412 35.3125 117.553 35.6875 117.725 36ZM110.905 31.9688C110.186 31.9688 109.561 31.8828 109.03 31.7109C108.498 31.5234 108.053 31.2734 107.694 30.9609C107.334 30.6484 107.061 30.2734 106.873 29.8359C106.686 29.3828 106.592 28.8984 106.592 28.3828C106.592 27.7578 106.701 27.1953 106.92 26.6953C107.155 26.1953 107.506 25.7656 107.975 25.4062C108.506 24.9844 109.217 24.6641 110.108 24.4453C110.998 24.2109 112.053 24.0938 113.272 24.0938H116.881V28.7812C116.678 29.1875 116.389 29.5781 116.014 29.9531C115.639 30.3281 115.194 30.6641 114.678 30.9609C114.162 31.2578 113.584 31.5 112.944 31.6875C112.319 31.875 111.639 31.9688 110.905 31.9688Z" fill="#222326"/>
<path d="M135.055 36H140L149.937 10.6406H144.125L137.914 29.0391L137.539 30.7266L137.164 29.0391L130.883 10.6406H125.07L135.055 36Z" fill="#222326"/>
<path d="M163.822 36.4688C166.29 36.4688 168.392 35.9844 170.126 35.0156C171.876 34.0469 173.173 32.9531 174.017 31.7344L171.017 28.8281C170.236 29.8281 169.244 30.6016 168.04 31.1484C166.837 31.6797 165.54 31.9453 164.15 31.9453C163.134 31.9453 162.197 31.7734 161.337 31.4297C160.494 31.0859 159.759 30.6016 159.134 29.9766C158.509 29.3828 158.017 28.7109 157.658 27.9609C157.298 27.2109 157.033 26.2812 156.861 25.1719V25.0547H174.439V22.6406C174.439 20.8281 174.197 19.1562 173.712 17.625C173.228 16.0938 172.509 14.7734 171.556 13.6641C170.603 12.5703 169.423 11.7188 168.017 11.1094C166.611 10.4844 164.994 10.1719 163.165 10.1719C161.525 10.1719 159.978 10.4844 158.525 11.1094C157.087 11.7188 155.822 12.5938 154.728 13.7344C153.634 14.875 152.775 16.25 152.15 17.8594C151.525 19.4688 151.212 21.2656 151.212 23.25V24.2109C151.212 25.9453 151.509 27.5625 152.103 29.0625C152.712 30.5469 153.572 31.8359 154.681 32.9297C155.79 34.0391 157.119 34.9062 158.665 35.5312C160.228 36.1562 161.947 36.4688 163.822 36.4688ZM163.142 14.7188C164.08 14.7188 164.9 14.8828 165.603 15.2109C166.322 15.5234 166.915 15.9453 167.384 16.4766C167.869 17.0234 168.244 17.6641 168.509 18.3984C168.775 19.1172 168.908 19.8438 168.908 20.5781V20.9531H156.978C157.15 19.9844 157.415 19.1172 157.775 18.3516C158.134 17.5859 158.58 16.9297 159.111 16.3828C159.642 15.8516 160.244 15.4453 160.915 15.1641C161.603 14.8672 162.345 14.7188 163.142 14.7188Z" fill="#222326"/>
</svg>
