<svg width="58" height="58" viewBox="0 0 58 58" fill="none" xmlns="http://www.w3.org/2000/svg">
<path d="M58 29C58 45.0163 45.0163 58 29 58C12.9837 58 0 45.0163 0 29C0 12.9838 12.9837 1.52588e-05 29 1.52588e-05C45.0163 1.52588e-05 58 12.9838 58 29Z" fill="#F2F3F4"/>
<path fill-rule="evenodd" clip-rule="evenodd" d="M29 55.0806C43.4039 55.0806 55.0805 43.4039 55.0805 29C55.0805 14.5961 43.4039 2.91948 29 2.91948C14.5961 2.91948 2.91946 14.5961 2.91946 29C2.91946 43.4039 14.5961 55.0806 29 55.0806ZM29 58C45.0163 58 58 45.0163 58 29C58 12.9838 45.0163 1.52588e-05 29 1.52588e-05C12.9837 1.52588e-05 0 12.9838 0 29C0 45.0163 12.9837 58 29 58Z" fill="#222326"/>
<path d="M36.3773 26.9731C38.2986 25.4615 39.701 23.3886 40.3894 21.0428C41.0777 18.697 41.0178 16.195 40.218 13.8849C39.4181 11.5747 37.9182 9.57131 35.9267 8.15336C33.9352 6.73542 31.5513 5.97344 29.1066 5.97344C26.662 5.97344 24.2781 6.73542 22.2866 8.15336C20.2951 9.57131 18.7951 11.5747 17.9953 13.8849C17.1955 16.195 17.1356 18.697 17.8239 21.0428C18.5123 23.3886 19.9147 25.4615 21.836 26.9731C18.5438 28.2921 15.6712 30.4798 13.5245 33.3029C11.3778 36.126 10.0375 39.4788 9.64637 43.0038C9.61806 43.2612 9.64072 43.5216 9.71305 43.7702C9.78539 44.0188 9.90597 44.2507 10.0679 44.4527C10.395 44.8606 10.8708 45.1219 11.3905 45.1791C11.9103 45.2363 12.4315 45.0847 12.8394 44.7576C13.2474 44.4305 13.5087 43.9547 13.5659 43.4349C13.9962 39.604 15.8229 36.0659 18.6969 33.4967C21.5709 30.9274 25.2908 29.5071 29.1458 29.5071C33.0009 29.5071 36.7207 30.9274 39.5948 33.4967C42.4688 36.0659 44.2955 39.604 44.7258 43.4349C44.7791 43.9165 45.0089 44.3612 45.3708 44.6833C45.7327 45.0054 46.2011 45.1821 46.6856 45.1791H46.9011C47.4149 45.12 47.8844 44.8603 48.2074 44.4565C48.5305 44.0527 48.6808 43.5376 48.6257 43.0234C48.2328 39.4884 46.8852 36.127 44.7275 33.2995C42.5698 30.4721 39.6832 28.2851 36.3773 26.9731ZM29.1066 25.5817C27.5562 25.5817 26.0407 25.1219 24.7515 24.2606C23.4624 23.3992 22.4577 22.1749 21.8644 20.7425C21.2711 19.3101 21.1158 17.734 21.4183 16.2134C21.7208 14.6928 22.4673 13.296 23.5636 12.1997C24.6599 11.1034 26.0567 10.3568 27.5773 10.0543C29.0979 9.75185 30.6741 9.90709 32.1065 10.5004C33.5389 11.0937 34.7632 12.0985 35.6245 13.3876C36.4859 14.6767 36.9456 16.1923 36.9456 17.7427C36.9456 19.8217 36.1197 21.8156 34.6496 23.2857C33.1795 24.7558 31.1857 25.5817 29.1066 25.5817Z" fill="#222326"/>
</svg>
